<?xml version="1.0" encoding="utf-8" standalone="no"?>
<!DOCTYPE svg PUBLIC "-//W3C//DTD SVG 1.1//EN"
  "http://www.w3.org/Graphics/SVG/1.1/DTD/svg11.dtd">
<svg xmlns:xlink="http://www.w3.org/1999/xlink" width="943.79pt" height="463.922012pt" viewBox="0 0 943.79 463.922012" xmlns="http://www.w3.org/2000/svg" version="1.1">
 <metadata>
  <rdf:RDF xmlns:dc="http://purl.org/dc/elements/1.1/" xmlns:cc="http://creativecommons.org/ns#" xmlns:rdf="http://www.w3.org/1999/02/22-rdf-syntax-ns#">
   <cc:Work>
    <dc:type rdf:resource="http://purl.org/dc/dcmitype/StillImage"/>
    <dc:date>2025-09-16T20:58:56.667030</dc:date>
    <dc:format>image/svg+xml</dc:format>
    <dc:creator>
     <cc:Agent>
      <dc:title>Matplotlib v3.5.3, https://matplotlib.org/</dc:title>
     </cc:Agent>
    </dc:creator>
   </cc:Work>
  </rdf:RDF>
 </metadata>
 <defs>
  <style type="text/css">*{stroke-linejoin: round; stroke-linecap: butt}</style>
 </defs>
 <g id="figure_1">
  <g id="patch_1">
   <path d="M 0 463.922012 
L 943.79 463.922012 
L 943.79 0 
L 0 0 
z
" style="fill: #ffffff"/>
  </g>
  <g id="axes_1">
   <g id="patch_2">
    <path d="M 65.5 314.9095 
L 878.29 314.9095 
L 878.29 7.2 
L 65.5 7.2 
z
" style="fill: #ffffff"/>
   </g>
   <g id="PolyCollection_1">
    <defs>
     <path id="m61319480e4" d="M 102.445 -201.693518 
L 102.445 -201.512691 
L 117.223 -396.323087 
L 132.001 -394.575098 
L 146.779 -414.646837 
L 161.557 -422.000447 
L 176.335 -423.868988 
L 191.113 -424.953946 
L 205.891 -425.375875 
L 220.669 -426.340283 
L 235.447 -426.943038 
L 250.225 -427.244415 
L 265.003 -427.545793 
L 279.781 -427.786895 
L 294.559 -428.027997 
L 309.337 -428.208823 
L 324.115 -428.510201 
L 338.893 -428.811578 
L 353.671 -428.932129 
L 368.449 -429.414333 
L 383.227 -429.71571 
L 398.005 -429.956812 
L 412.783 -430.197914 
L 427.561 -430.318465 
L 442.339 -430.318465 
L 457.117 -430.378741 
L 471.895 -430.559567 
L 486.673 -430.197914 
L 501.451 -429.836261 
L 516.229 -429.956812 
L 531.007 -429.775986 
L 545.785 -429.836261 
L 560.563 -429.836261 
L 575.341 -429.775986 
L 590.119 -429.71571 
L 604.897 -429.836261 
L 619.675 -429.655435 
L 634.453 -429.836261 
L 649.231 -429.655435 
L 664.009 -429.534884 
L 678.787 -429.534884 
L 693.565 -429.414333 
L 708.343 -429.474608 
L 723.121 -429.474608 
L 737.899 -429.474608 
L 752.677 -429.474608 
L 767.455 -429.414333 
L 782.233 -429.474608 
L 797.011 -429.474608 
L 811.789 -429.534884 
L 826.567 -429.655435 
L 841.345 -429.474608 
L 841.345 -436.225464 
L 841.345 -436.225464 
L 826.567 -436.225464 
L 811.789 -436.165188 
L 797.011 -436.225464 
L 782.233 -436.225464 
L 767.455 -436.165188 
L 752.677 -436.165188 
L 737.899 -436.165188 
L 723.121 -436.165188 
L 708.343 -436.165188 
L 693.565 -436.165188 
L 678.787 -436.165188 
L 664.009 -436.104913 
L 649.231 -436.165188 
L 634.453 -436.104913 
L 619.675 -436.044637 
L 604.897 -436.104913 
L 590.119 -436.044637 
L 575.341 -436.044637 
L 560.563 -436.104913 
L 545.785 -435.984362 
L 531.007 -436.104913 
L 516.229 -436.165188 
L 501.451 -436.285739 
L 486.673 -436.165188 
L 471.895 -436.466566 
L 457.117 -436.225464 
L 442.339 -436.225464 
L 427.561 -436.225464 
L 412.783 -436.044637 
L 398.005 -435.74326 
L 383.227 -435.682984 
L 368.449 -435.622709 
L 353.671 -435.622709 
L 338.893 -435.562433 
L 324.115 -435.441882 
L 309.337 -435.261056 
L 294.559 -435.019954 
L 279.781 -434.658301 
L 265.003 -434.176097 
L 250.225 -433.392516 
L 235.447 -432.006179 
L 220.669 -431.102047 
L 205.891 -430.740394 
L 191.113 -429.474608 
L 176.335 -427.726619 
L 161.557 -425.315599 
L 146.779 -417.359234 
L 132.001 -398.432729 
L 117.223 -399.397137 
L 102.445 -201.693518 
z
" style="stroke: #ff7f0e; stroke-opacity: 0.2"/>
    </defs>
    <g clip-path="url(#p3cd17e6c4b)">
     <use xlink:href="#m61319480e4" x="0" y="463.922012" style="fill: #ff7f0e; fill-opacity: 0.2; stroke: #ff7f0e; stroke-opacity: 0.2"/>
    </g>
   </g>
   <g id="PolyCollection_2">
    <defs>
     <path id="m1e5be4e33f" d="M 102.445 -201.736218 
L 102.445 -200.662299 
L 117.223 -383.499843 
L 132.001 -383.445543 
L 146.779 -402.47024 
L 161.557 -407.369577 
L 176.335 -402.260419 
L 191.113 -399.547617 
L 205.891 -391.437209 
L 220.669 -384.921509 
L 235.447 -379.764809 
L 250.225 -374.415344 
L 265.003 -364.314313 
L 279.781 -382.683944 
L 294.559 -369.861213 
L 309.337 -355.821303 
L 324.115 -337.432025 
L 338.893 -348.240692 
L 353.671 -346.887382 
L 368.449 -342.506216 
L 383.227 -337.132334 
L 398.005 -300.221578 
L 412.783 -336.473784 
L 427.561 -315.078875 
L 442.339 -320.981864 
L 457.117 -323.282587 
L 471.895 -294.5266 
L 486.673 -323.141491 
L 501.451 -323.089485 
L 516.229 -334.826079 
L 531.007 -333.64069 
L 545.785 -278.038357 
L 560.563 -285.938932 
L 575.341 -335.576145 
L 590.119 -316.905353 
L 604.897 -334.223501 
L 619.675 -324.460611 
L 634.453 -344.996139 
L 649.231 -348.498972 
L 664.009 -323.408668 
L 678.787 -341.54597 
L 693.565 -326.228991 
L 708.343 -333.816709 
L 723.121 -322.797409 
L 737.899 -321.045942 
L 752.677 -325.80423 
L 767.455 -350.465019 
L 782.233 -320.019029 
L 797.011 -335.963987 
L 811.789 -324.500623 
L 826.567 -334.728169 
L 841.345 -322.323693 
L 841.345 -402.705432 
L 841.345 -402.705432 
L 826.567 -394.110368 
L 811.789 -406.616327 
L 797.011 -386.268355 
L 782.233 -374.076712 
L 767.455 -411.74203 
L 752.677 -380.310445 
L 737.899 -402.560681 
L 723.121 -394.890161 
L 708.343 -406.004022 
L 693.565 -396.606106 
L 678.787 -411.318378 
L 664.009 -385.900608 
L 649.231 -387.717284 
L 634.453 -395.15008 
L 619.675 -398.615588 
L 604.897 -388.117337 
L 590.119 -358.432655 
L 575.341 -389.838743 
L 560.563 -377.741795 
L 545.785 -386.944321 
L 531.007 -419.850523 
L 516.229 -408.683512 
L 501.451 -366.702586 
L 486.673 -403.84056 
L 471.895 -399.496811 
L 457.117 -393.573181 
L 442.339 -390.871038 
L 427.561 -399.136827 
L 412.783 -396.716643 
L 398.005 -363.760527 
L 383.227 -391.730313 
L 368.449 -388.550458 
L 353.671 -415.259392 
L 338.893 -403.333761 
L 324.115 -394.118909 
L 309.337 -406.048204 
L 294.559 -406.016319 
L 279.781 -423.765317 
L 265.003 -406.391581 
L 250.225 -408.381814 
L 235.447 -405.49159 
L 220.669 -416.946815 
L 205.891 -418.568307 
L 191.113 -418.149052 
L 176.335 -421.331193 
L 161.557 -416.692184 
L 146.779 -414.442847 
L 132.001 -392.227052 
L 117.223 -392.220972 
L 102.445 -201.736218 
z
" style="stroke: #ff7f0e; stroke-opacity: 0.2"/>
    </defs>
    <g clip-path="url(#p3cd17e6c4b)">
     <use xlink:href="#m1e5be4e33f" x="0" y="463.922012" style="fill: #ff7f0e; fill-opacity: 0.2; stroke: #ff7f0e; stroke-opacity: 0.2"/>
    </g>
   </g>
   <g id="PolyCollection_3">
    <defs>
     <path id="m7e577ab081" d="M 102.445 -201.633242 
L 102.445 -201.633242 
L 117.223 -259.31689 
L 132.001 -263.114246 
L 146.779 -310.490784 
L 161.557 -359.012556 
L 176.335 -367.631952 
L 191.113 -381.736417 
L 205.891 -413.863256 
L 220.669 -421.337417 
L 235.447 -426.159456 
L 250.225 -428.992404 
L 265.003 -431.222598 
L 279.781 -433.091138 
L 294.559 -434.53775 
L 309.337 -435.803535 
L 324.115 -436.466566 
L 338.893 -437.129596 
L 353.671 -437.430974 
L 368.449 -437.913178 
L 383.227 -438.094004 
L 398.005 -438.395381 
L 412.783 -438.455657 
L 427.561 -438.696759 
L 442.339 -438.998136 
L 457.117 -439.420065 
L 471.895 -439.841993 
L 486.673 -439.841993 
L 501.451 -439.962544 
L 516.229 -440.02282 
L 531.007 -440.02282 
L 545.785 -440.02282 
L 560.563 -440.02282 
L 575.341 -440.02282 
L 590.119 -440.02282 
L 604.897 -440.02282 
L 619.675 -440.143371 
L 634.453 -440.203646 
L 649.231 -440.324197 
L 664.009 -440.324197 
L 678.787 -440.324197 
L 693.565 -440.324197 
L 708.343 -440.324197 
L 723.121 -440.324197 
L 737.899 -440.324197 
L 752.677 -440.384473 
L 767.455 -440.324197 
L 782.233 -440.324197 
L 797.011 -440.384473 
L 811.789 -440.444748 
L 826.567 -440.444748 
L 841.345 -440.565299 
L 841.345 -441.710534 
L 841.345 -441.710534 
L 826.567 -441.650258 
L 811.789 -441.589983 
L 797.011 -441.589983 
L 782.233 -441.529707 
L 767.455 -441.469432 
L 752.677 -441.469432 
L 737.899 -441.348881 
L 723.121 -441.348881 
L 708.343 -441.107779 
L 693.565 -441.107779 
L 678.787 -441.107779 
L 664.009 -441.107779 
L 649.231 -441.047503 
L 634.453 -441.047503 
L 619.675 -440.926952 
L 604.897 -440.926952 
L 590.119 -440.926952 
L 575.341 -440.926952 
L 560.563 -440.926952 
L 545.785 -440.926952 
L 531.007 -440.926952 
L 516.229 -440.926952 
L 501.451 -440.926952 
L 486.673 -440.926952 
L 471.895 -441.047503 
L 457.117 -440.806401 
L 442.339 -440.625575 
L 427.561 -440.444748 
L 412.783 -440.083095 
L 398.005 -439.600891 
L 383.227 -439.299514 
L 368.449 -438.757034 
L 353.671 -438.576208 
L 338.893 -438.274831 
L 324.115 -437.491249 
L 309.337 -436.104913 
L 294.559 -435.261056 
L 279.781 -433.452791 
L 265.003 -432.247281 
L 250.225 -429.896537 
L 235.447 -426.701936 
L 220.669 -422.241549 
L 205.891 -415.309867 
L 191.113 -389.873609 
L 176.335 -369.500492 
L 161.557 -363.11129 
L 146.779 -320.134863 
L 132.001 -265.103337 
L 117.223 -259.557992 
L 102.445 -201.633242 
z
" style="stroke: #2ca02c; stroke-opacity: 0.2"/>
    </defs>
    <g clip-path="url(#p3cd17e6c4b)">
     <use xlink:href="#m7e577ab081" x="0" y="463.922012" style="fill: #2ca02c; fill-opacity: 0.2; stroke: #2ca02c; stroke-opacity: 0.2"/>
    </g>
   </g>
   <g id="PolyCollection_4">
    <defs>
     <path id="m75b71687d2" d="M 102.445 -201.737855 
L 102.445 -201.142866 
L 117.223 -255.784491 
L 132.001 -260.120348 
L 146.779 -303.840883 
L 161.557 -348.608165 
L 176.335 -355.896983 
L 191.113 -361.46146 
L 205.891 -375.85669 
L 220.669 -367.794123 
L 235.447 -344.797721 
L 250.225 -339.182688 
L 265.003 -297.98065 
L 279.781 -306.492263 
L 294.559 -294.252376 
L 309.337 -262.593538 
L 324.115 -253.157152 
L 338.893 -260.058212 
L 353.671 -234.10494 
L 368.449 -221.206921 
L 383.227 -223.176669 
L 398.005 -189.941142 
L 412.783 -186.777583 
L 427.561 -209.481235 
L 442.339 -215.408583 
L 457.117 -176.122531 
L 471.895 -187.774722 
L 486.673 -215.976658 
L 501.451 -202.916485 
L 516.229 -223.840288 
L 531.007 -207.794882 
L 545.785 -172.595383 
L 560.563 -176.00152 
L 575.341 -195.916854 
L 590.119 -185.934029 
L 604.897 -177.01018 
L 619.675 -187.93058 
L 634.453 -191.003217 
L 649.231 -205.569456 
L 664.009 -196.549667 
L 678.787 -224.236384 
L 693.565 -204.901048 
L 708.343 -193.499963 
L 723.121 -187.953343 
L 737.899 -242.341032 
L 752.677 -186.945731 
L 767.455 -230.118662 
L 782.233 -211.492237 
L 797.011 -215.835625 
L 811.789 -176.652134 
L 826.567 -224.430008 
L 841.345 -198.326484 
L 841.345 -316.702821 
L 841.345 -316.702821 
L 826.567 -321.339798 
L 811.789 -298.643566 
L 797.011 -325.546125 
L 782.233 -300.053144 
L 767.455 -332.80555 
L 752.677 -297.451567 
L 737.899 -311.228423 
L 723.121 -316.334869 
L 708.343 -326.375492 
L 693.565 -293.239064 
L 678.787 -319.110348 
L 664.009 -316.924531 
L 649.231 -286.362279 
L 634.453 -336.213793 
L 619.675 -330.691144 
L 604.897 -266.339507 
L 590.119 -292.158454 
L 575.341 -290.92763 
L 560.563 -286.889482 
L 545.785 -285.859343 
L 531.007 -354.152867 
L 516.229 -341.08507 
L 501.451 -261.818948 
L 486.673 -340.124368 
L 471.895 -290.751744 
L 457.117 -312.035959 
L 442.339 -299.114408 
L 427.561 -309.682969 
L 412.783 -312.19433 
L 398.005 -294.504378 
L 383.227 -315.806118 
L 368.449 -311.700095 
L 353.671 -372.085022 
L 338.893 -337.71729 
L 324.115 -326.19816 
L 309.337 -351.769781 
L 294.559 -370.754412 
L 279.781 -405.083372 
L 265.003 -384.891795 
L 250.225 -397.76893 
L 235.447 -397.289369 
L 220.669 -409.747012 
L 205.891 -403.070781 
L 191.113 -379.805883 
L 176.335 -365.395062 
L 161.557 -356.903755 
L 146.779 -313.560321 
L 132.001 -262.527779 
L 117.223 -258.642058 
L 102.445 -201.737855 
z
" style="stroke: #2ca02c; stroke-opacity: 0.2"/>
    </defs>
    <g clip-path="url(#p3cd17e6c4b)">
     <use xlink:href="#m75b71687d2" x="0" y="463.922012" style="fill: #2ca02c; fill-opacity: 0.2; stroke: #2ca02c; stroke-opacity: 0.2"/>
    </g>
   </g>
   <g id="PolyCollection_5">
    <defs>
     <path id="m6aca74ec8a" d="M 102.445 -201.693518 
L 102.445 -201.572967 
L 117.223 -421.216866 
L 132.001 -426.762211 
L 146.779 -430.559567 
L 161.557 -434.598025 
L 176.335 -436.707668 
L 191.113 -437.672076 
L 205.891 -438.81731 
L 220.669 -439.841993 
L 235.447 -440.263922 
L 250.225 -440.625575 
L 265.003 -440.866677 
L 279.781 -441.047503 
L 294.559 -441.107779 
L 309.337 -441.22833 
L 324.115 -441.348881 
L 338.893 -441.409156 
L 353.671 -441.469432 
L 368.449 -441.529707 
L 383.227 -441.529707 
L 398.005 -441.650258 
L 412.783 -441.710534 
L 427.561 -441.710534 
L 442.339 -441.89136 
L 457.117 -441.951636 
L 471.895 -442.011911 
L 486.673 -442.072187 
L 501.451 -442.072187 
L 516.229 -442.072187 
L 531.007 -442.132462 
L 545.785 -442.132462 
L 560.563 -442.192738 
L 575.341 -442.192738 
L 590.119 -442.192738 
L 604.897 -442.132462 
L 619.675 -442.192738 
L 634.453 -442.192738 
L 649.231 -442.192738 
L 664.009 -442.192738 
L 678.787 -442.253013 
L 693.565 -442.313289 
L 708.343 -442.373564 
L 723.121 -442.43384 
L 737.899 -442.43384 
L 752.677 -442.43384 
L 767.455 -442.494115 
L 782.233 -442.494115 
L 797.011 -442.494115 
L 811.789 -442.494115 
L 826.567 -442.554391 
L 841.345 -442.554391 
L 841.345 -442.735217 
L 841.345 -442.735217 
L 826.567 -442.735217 
L 811.789 -442.735217 
L 797.011 -442.735217 
L 782.233 -442.735217 
L 767.455 -442.735217 
L 752.677 -442.735217 
L 737.899 -442.735217 
L 723.121 -442.735217 
L 708.343 -442.735217 
L 693.565 -442.735217 
L 678.787 -442.735217 
L 664.009 -442.735217 
L 649.231 -442.735217 
L 634.453 -442.735217 
L 619.675 -442.735217 
L 604.897 -442.735217 
L 590.119 -442.735217 
L 575.341 -442.735217 
L 560.563 -442.735217 
L 545.785 -442.735217 
L 531.007 -442.735217 
L 516.229 -442.735217 
L 501.451 -442.735217 
L 486.673 -442.735217 
L 471.895 -442.735217 
L 457.117 -442.735217 
L 442.339 -442.735217 
L 427.561 -442.735217 
L 412.783 -442.735217 
L 398.005 -442.735217 
L 383.227 -442.735217 
L 368.449 -442.735217 
L 353.671 -442.735217 
L 338.893 -442.735217 
L 324.115 -442.735217 
L 309.337 -442.614666 
L 294.559 -442.614666 
L 279.781 -442.614666 
L 265.003 -442.494115 
L 250.225 -442.313289 
L 235.447 -441.89136 
L 220.669 -441.288605 
L 205.891 -440.806401 
L 191.113 -439.902269 
L 176.335 -439.299514 
L 161.557 -437.250147 
L 146.779 -435.562433 
L 132.001 -432.367832 
L 117.223 -425.315599 
L 102.445 -201.693518 
z
" style="stroke: #d62728; stroke-opacity: 0.2"/>
    </defs>
    <g clip-path="url(#p3cd17e6c4b)">
     <use xlink:href="#m6aca74ec8a" x="0" y="463.922012" style="fill: #d62728; fill-opacity: 0.2; stroke: #d62728; stroke-opacity: 0.2"/>
    </g>
   </g>
   <g id="PolyCollection_6">
    <defs>
     <path id="mbc0203c5a9" d="M 102.445 -201.755174 
L 102.445 -201.017051 
L 117.223 -406.515479 
L 132.001 -385.458172 
L 146.779 -353.350329 
L 161.557 -306.411077 
L 176.335 -262.852012 
L 191.113 -236.300051 
L 205.891 -225.395901 
L 220.669 -211.988294 
L 235.447 -170.56247 
L 250.225 -196.071238 
L 265.003 -208.760717 
L 279.781 -204.054069 
L 294.559 -194.939048 
L 309.337 -195.254636 
L 324.115 -179.238342 
L 338.893 -218.986317 
L 353.671 -201.029207 
L 368.449 -192.803742 
L 383.227 -193.643371 
L 398.005 -181.96091 
L 412.783 -172.426982 
L 427.561 -200.398335 
L 442.339 -209.420142 
L 457.117 -165.103429 
L 471.895 -163.610062 
L 486.673 -228.590128 
L 501.451 -209.716907 
L 516.229 -211.670803 
L 531.007 -221.20759 
L 545.785 -165.085603 
L 560.563 -167.585406 
L 575.341 -188.387163 
L 590.119 -188.097793 
L 604.897 -184.825218 
L 619.675 -189.467416 
L 634.453 -205.297497 
L 649.231 -206.845786 
L 664.009 -203.857303 
L 678.787 -219.04616 
L 693.565 -194.358209 
L 708.343 -206.677631 
L 723.121 -185.932221 
L 737.899 -231.096627 
L 752.677 -175.9712 
L 767.455 -214.660809 
L 782.233 -216.891879 
L 797.011 -190.698164 
L 811.789 -162.999308 
L 826.567 -218.460841 
L 841.345 -201.369282 
L 841.345 -307.439592 
L 841.345 -307.439592 
L 826.567 -300.98063 
L 811.789 -281.676441 
L 797.011 -281.041281 
L 782.233 -275.859603 
L 767.455 -320.162968 
L 752.677 -283.520265 
L 737.899 -299.363204 
L 723.121 -310.917995 
L 708.343 -304.86775 
L 693.565 -278.683187 
L 678.787 -305.205296 
L 664.009 -306.422293 
L 649.231 -293.898227 
L 634.453 -325.331106 
L 619.675 -304.35697 
L 604.897 -261.140426 
L 590.119 -300.325909 
L 575.341 -252.406844 
L 560.563 -259.164411 
L 545.785 -287.100472 
L 531.007 -333.820532 
L 516.229 -313.147242 
L 501.451 -279.261329 
L 486.673 -331.669908 
L 471.895 -260.198311 
L 457.117 -292.133732 
L 442.339 -293.554065 
L 427.561 -294.269908 
L 412.783 -318.251024 
L 398.005 -289.633874 
L 383.227 -302.941633 
L 368.449 -283.950624 
L 353.671 -316.555779 
L 338.893 -304.722659 
L 324.115 -275.009155 
L 309.337 -275.930275 
L 294.559 -294.967431 
L 279.781 -321.077408 
L 265.003 -290.66929 
L 250.225 -291.725599 
L 235.447 -277.862414 
L 220.669 -314.951448 
L 205.891 -318.252208 
L 191.113 -353.33826 
L 176.335 -370.763299 
L 161.557 -382.82646 
L 146.779 -414.944546 
L 132.001 -415.228753 
L 117.223 -416.798866 
L 102.445 -201.755174 
z
" style="stroke: #d62728; stroke-opacity: 0.2"/>
    </defs>
    <g clip-path="url(#p3cd17e6c4b)">
     <use xlink:href="#mbc0203c5a9" x="0" y="463.922012" style="fill: #d62728; fill-opacity: 0.2; stroke: #d62728; stroke-opacity: 0.2"/>
    </g>
   </g>
   <g id="PolyCollection_7">
    <defs>
     <path id="m0a6a931e92" d="M 102.445 -201.633242 
L 102.445 -201.633242 
L 117.223 -409.824797 
L 132.001 -419.348325 
L 146.779 -419.95108 
L 161.557 -422.603202 
L 176.335 -424.833395 
L 191.113 -426.882762 
L 205.891 -427.907446 
L 220.669 -428.570476 
L 235.447 -428.871853 
L 250.225 -429.71571 
L 265.003 -430.680118 
L 279.781 -431.222598 
L 294.559 -431.644526 
L 309.337 -432.187006 
L 324.115 -432.488383 
L 338.893 -432.850036 
L 353.671 -433.211689 
L 368.449 -433.392516 
L 383.227 -433.874719 
L 398.005 -434.176097 
L 412.783 -434.598025 
L 427.561 -434.959678 
L 442.339 -435.20078 
L 457.117 -435.502158 
L 471.895 -435.682984 
L 486.673 -435.803535 
L 501.451 -435.803535 
L 516.229 -435.803535 
L 531.007 -435.562433 
L 545.785 -435.863811 
L 560.563 -435.74326 
L 575.341 -435.803535 
L 590.119 -435.984362 
L 604.897 -435.863811 
L 619.675 -435.622709 
L 634.453 -436.104913 
L 649.231 -436.044637 
L 664.009 -435.682984 
L 678.787 -436.165188 
L 693.565 -436.225464 
L 708.343 -435.74326 
L 723.121 -436.225464 
L 737.899 -436.225464 
L 752.677 -435.863811 
L 767.455 -436.40629 
L 782.233 -436.40629 
L 797.011 -436.225464 
L 811.789 -436.466566 
L 826.567 -436.587117 
L 841.345 -436.285739 
L 841.345 -437.250147 
L 841.345 -437.250147 
L 826.567 -437.551525 
L 811.789 -437.430974 
L 797.011 -437.189872 
L 782.233 -437.551525 
L 767.455 -437.430974 
L 752.677 -437.009045 
L 737.899 -437.430974 
L 723.121 -437.250147 
L 708.343 -437.069321 
L 693.565 -437.430974 
L 678.787 -437.189872 
L 664.009 -437.009045 
L 649.231 -437.310423 
L 634.453 -437.129596 
L 619.675 -436.888494 
L 604.897 -437.250147 
L 590.119 -437.250147 
L 575.341 -437.009045 
L 560.563 -437.310423 
L 545.785 -437.129596 
L 531.007 -436.767943 
L 516.229 -437.250147 
L 501.451 -437.129596 
L 486.673 -437.430974 
L 471.895 -437.370698 
L 457.117 -437.069321 
L 442.339 -436.587117 
L 427.561 -436.587117 
L 412.783 -436.346015 
L 398.005 -436.104913 
L 383.227 -435.74326 
L 368.449 -435.261056 
L 353.671 -434.718576 
L 338.893 -434.417199 
L 324.115 -433.693893 
L 309.337 -433.030863 
L 294.559 -432.910312 
L 279.781 -432.367832 
L 265.003 -431.765077 
L 250.225 -431.222598 
L 235.447 -430.137639 
L 220.669 -429.414333 
L 205.891 -428.027997 
L 191.113 -427.003313 
L 176.335 -425.014222 
L 161.557 -423.326508 
L 146.779 -421.216866 
L 132.001 -419.408601 
L 117.223 -410.487828 
L 102.445 -201.633242 
z
" style="stroke: #9467bd; stroke-opacity: 0.2"/>
    </defs>
    <g clip-path="url(#p3cd17e6c4b)">
     <use xlink:href="#m0a6a931e92" x="0" y="463.922012" style="fill: #9467bd; fill-opacity: 0.2; stroke: #9467bd; stroke-opacity: 0.2"/>
    </g>
   </g>
   <g id="PolyCollection_8">
    <defs>
     <path id="mfe68113da0" d="M 102.445 -201.669408 
L 102.445 -201.524746 
L 117.223 -407.048206 
L 132.001 -415.912453 
L 146.779 -415.181293 
L 161.557 -413.63175 
L 176.335 -412.322796 
L 191.113 -406.422399 
L 205.891 -399.500227 
L 220.669 -390.385753 
L 235.447 -385.254915 
L 250.225 -380.328756 
L 265.003 -366.792259 
L 279.781 -380.154136 
L 294.559 -364.607806 
L 309.337 -353.725092 
L 324.115 -330.791178 
L 338.893 -335.76129 
L 353.671 -330.641368 
L 368.449 -327.772539 
L 383.227 -322.759086 
L 398.005 -270.729502 
L 412.783 -302.976001 
L 427.561 -304.664421 
L 442.339 -297.730916 
L 457.117 -287.385742 
L 471.895 -250.219113 
L 486.673 -273.855272 
L 501.451 -276.516691 
L 516.229 -291.578387 
L 531.007 -298.536057 
L 545.785 -234.435285 
L 560.563 -236.44565 
L 575.341 -290.999866 
L 590.119 -251.210407 
L 604.897 -275.564131 
L 619.675 -256.600993 
L 634.453 -282.928438 
L 649.231 -292.951944 
L 664.009 -276.596566 
L 678.787 -308.167791 
L 693.565 -264.790946 
L 708.343 -288.294897 
L 723.121 -259.187227 
L 737.899 -296.586555 
L 752.677 -257.005938 
L 767.455 -312.725983 
L 782.233 -278.418804 
L 797.011 -290.67577 
L 811.789 -252.583562 
L 826.567 -279.263887 
L 841.345 -263.736077 
L 841.345 -373.965913 
L 841.345 -373.965913 
L 826.567 -372.482292 
L 811.789 -363.853234 
L 797.011 -377.00725 
L 782.233 -351.712584 
L 767.455 -401.791096 
L 752.677 -355.910768 
L 737.899 -361.982811 
L 723.121 -372.728315 
L 708.343 -373.951274 
L 693.565 -364.002326 
L 678.787 -397.175358 
L 664.009 -358.031373 
L 649.231 -361.615128 
L 634.453 -377.340697 
L 619.675 -387.719246 
L 604.897 -342.234891 
L 590.119 -341.767167 
L 575.341 -373.030459 
L 560.563 -336.725396 
L 545.785 -368.391304 
L 531.007 -399.2606 
L 516.229 -389.955941 
L 501.451 -342.174408 
L 486.673 -403.76115 
L 471.895 -368.544316 
L 457.117 -375.282357 
L 442.339 -367.119156 
L 427.561 -394.422131 
L 412.783 -386.17715 
L 398.005 -358.389257 
L 383.227 -388.744218 
L 368.449 -374.339843 
L 353.671 -410.529535 
L 338.893 -388.219041 
L 324.115 -394.575489 
L 309.337 -410.724206 
L 294.559 -410.859852 
L 279.781 -423.040249 
L 265.003 -408.603069 
L 250.225 -410.280106 
L 235.447 -410.188042 
L 220.669 -419.294275 
L 205.891 -418.726866 
L 191.113 -419.532013 
L 176.335 -421.792918 
L 161.557 -420.254916 
L 146.779 -419.862663 
L 132.001 -418.480528 
L 117.223 -409.64789 
L 102.445 -201.669408 
z
" style="stroke: #9467bd; stroke-opacity: 0.2"/>
    </defs>
    <g clip-path="url(#p3cd17e6c4b)">
     <use xlink:href="#mfe68113da0" x="0" y="463.922012" style="fill: #9467bd; fill-opacity: 0.2; stroke: #9467bd; stroke-opacity: 0.2"/>
    </g>
   </g>
   <g id="PolyCollection_9">
    <defs>
     <path id="mc3ed15e5d4" d="M 102.445 -201.572967 
L 102.445 -200.970212 
L 117.223 -364.196249 
L 132.001 -401.506779 
L 146.779 -411.633062 
L 161.557 -415.912622 
L 176.335 -416.394826 
L 191.113 -415.129041 
L 205.891 -416.575653 
L 220.669 -416.033173 
L 235.447 -417.359234 
L 250.225 -415.912622 
L 265.003 -416.455102 
L 279.781 -416.515377 
L 294.559 -416.756479 
L 309.337 -417.298959 
L 324.115 -417.479785 
L 338.893 -416.696204 
L 353.671 -417.298959 
L 368.449 -417.720887 
L 383.227 -416.455102 
L 398.005 -417.178408 
L 412.783 -416.696204 
L 427.561 -417.359234 
L 442.339 -417.298959 
L 457.117 -417.178408 
L 471.895 -417.057857 
L 486.673 -416.696204 
L 501.451 -415.912622 
L 516.229 -416.515377 
L 531.007 -415.731796 
L 545.785 -415.792071 
L 560.563 -416.033173 
L 575.341 -416.635928 
L 590.119 -415.852347 
L 604.897 -416.575653 
L 619.675 -415.792071 
L 634.453 -415.611245 
L 649.231 -415.67152 
L 664.009 -415.792071 
L 678.787 -416.455102 
L 693.565 -415.309867 
L 708.343 -415.792071 
L 723.121 -414.646837 
L 737.899 -415.249592 
L 752.677 -415.00849 
L 767.455 -416.214 
L 782.233 -415.550969 
L 797.011 -416.093449 
L 811.789 -415.611245 
L 826.567 -415.852347 
L 841.345 -415.912622 
L 841.345 -416.033173 
L 841.345 -416.033173 
L 826.567 -415.972898 
L 811.789 -416.033173 
L 797.011 -416.515377 
L 782.233 -415.852347 
L 767.455 -416.997581 
L 752.677 -415.430418 
L 737.899 -415.550969 
L 723.121 -415.731796 
L 708.343 -416.334551 
L 693.565 -415.67152 
L 678.787 -416.816755 
L 664.009 -416.455102 
L 649.231 -415.912622 
L 634.453 -415.912622 
L 619.675 -416.334551 
L 604.897 -416.696204 
L 590.119 -416.214 
L 575.341 -416.756479 
L 560.563 -416.394826 
L 545.785 -417.118132 
L 531.007 -416.696204 
L 516.229 -417.057857 
L 501.451 -416.756479 
L 486.673 -417.781163 
L 471.895 -417.359234 
L 457.117 -417.720887 
L 442.339 -418.745571 
L 427.561 -418.986673 
L 412.783 -417.359234 
L 398.005 -417.41951 
L 383.227 -417.901714 
L 368.449 -417.841438 
L 353.671 -417.841438 
L 338.893 -418.504469 
L 324.115 -418.564744 
L 309.337 -417.961989 
L 294.559 -417.479785 
L 279.781 -417.178408 
L 265.003 -417.41951 
L 250.225 -417.540061 
L 235.447 -418.142816 
L 220.669 -416.274275 
L 205.891 -417.600336 
L 191.113 -416.455102 
L 176.335 -417.178408 
L 161.557 -417.781163 
L 146.779 -412.054991 
L 132.001 -403.857524 
L 117.223 -368.897737 
L 102.445 -201.572967 
z
" style="stroke: #1f77b4; stroke-opacity: 0.2"/>
    </defs>
    <g clip-path="url(#p3cd17e6c4b)">
     <use xlink:href="#mc3ed15e5d4" x="0" y="463.922012" style="fill: #1f77b4; fill-opacity: 0.2; stroke: #1f77b4; stroke-opacity: 0.2"/>
    </g>
   </g>
   <g id="PolyCollection_10">
    <defs>
     <path id="maea7207eb2" d="M 102.445 -201.603137 
L 102.445 -198.2397 
L 117.223 -360.748219 
L 132.001 -397.735599 
L 146.779 -406.35431 
L 161.557 -412.527247 
L 176.335 -413.256861 
L 191.113 -413.447939 
L 205.891 -414.792212 
L 220.669 -413.852867 
L 235.447 -414.153054 
L 250.225 -413.854565 
L 265.003 -414.532782 
L 279.781 -413.78865 
L 294.559 -414.830631 
L 309.337 -415.243606 
L 324.115 -416.128001 
L 338.893 -415.036249 
L 353.671 -415.968057 
L 368.449 -415.058528 
L 383.227 -414.595358 
L 398.005 -414.51198 
L 412.783 -415.620229 
L 427.561 -416.063953 
L 442.339 -415.392556 
L 457.117 -414.786505 
L 471.895 -414.40674 
L 486.673 -414.785398 
L 501.451 -413.913389 
L 516.229 -414.459097 
L 531.007 -415.761192 
L 545.785 -413.978545 
L 560.563 -413.422611 
L 575.341 -413.99619 
L 590.119 -413.270558 
L 604.897 -414.90053 
L 619.675 -413.43604 
L 634.453 -413.917062 
L 649.231 -413.403909 
L 664.009 -413.994717 
L 678.787 -414.458649 
L 693.565 -412.911732 
L 708.343 -413.575246 
L 723.121 -414.130445 
L 737.899 -414.30392 
L 752.677 -412.622208 
L 767.455 -413.8235 
L 782.233 -412.20765 
L 797.011 -413.921629 
L 811.789 -413.785121 
L 826.567 -413.822449 
L 841.345 -413.671891 
L 841.345 -415.682058 
L 841.345 -415.682058 
L 826.567 -416.676734 
L 811.789 -416.219804 
L 797.011 -416.215902 
L 782.233 -414.289241 
L 767.455 -415.446064 
L 752.677 -414.935531 
L 737.899 -416.472531 
L 723.121 -415.524882 
L 708.343 -415.899255 
L 693.565 -415.188487 
L 678.787 -416.775895 
L 664.009 -416.154869 
L 649.231 -416.42019 
L 634.453 -416.799113 
L 619.675 -416.134901 
L 604.897 -416.526896 
L 590.119 -415.81818 
L 575.341 -416.647655 
L 560.563 -416.919857 
L 545.785 -416.110765 
L 531.007 -417.378059 
L 516.229 -416.715172 
L 501.451 -416.64607 
L 486.673 -417.293004 
L 471.895 -416.574648 
L 457.117 -416.857913 
L 442.339 -418.048072 
L 427.561 -418.497799 
L 412.783 -417.989171 
L 398.005 -417.096273 
L 383.227 -417.675925 
L 368.449 -418.333879 
L 353.671 -417.834224 
L 338.893 -417.222979 
L 324.115 -417.300572 
L 309.337 -417.871534 
L 294.559 -416.198977 
L 279.781 -415.963117 
L 265.003 -416.472716 
L 250.225 -417.090657 
L 235.447 -415.984477 
L 220.669 -415.681908 
L 205.891 -416.828096 
L 191.113 -415.375586 
L 176.335 -415.855986 
L 161.557 -415.28365 
L 146.779 -410.245345 
L 132.001 -401.251557 
L 117.223 -366.101226 
L 102.445 -201.603137 
z
" style="stroke: #1f77b4; stroke-opacity: 0.2"/>
    </defs>
    <g clip-path="url(#p3cd17e6c4b)">
     <use xlink:href="#maea7207eb2" x="0" y="463.922012" style="fill: #1f77b4; fill-opacity: 0.2; stroke: #1f77b4; stroke-opacity: 0.2"/>
    </g>
   </g>
   <g id="matplotlib.axis_1">
    <g id="xtick_1">
     <g id="line2d_1">
      <path d="M 102.445 314.9095 
L 102.445 7.2 
" clip-path="url(#p3cd17e6c4b)" style="fill: none; stroke: #b0b0b0; stroke-width: 0.8; stroke-linecap: square"/>
     </g>
     <g id="line2d_2">
      <defs>
       <path id="mfec3d0b817" d="M 0 0 
L 0 3.5 
" style="stroke: #000000; stroke-width: 0.8"/>
      </defs>
      <g>
       <use xlink:href="#mfec3d0b817" x="102.445" y="314.9095" style="stroke: #000000; stroke-width: 0.8"/>
      </g>
     </g>
     <g id="text_1">
      <!-- 0 -->
      <g transform="translate(97.945 334.40825)scale(0.18 -0.18)">
       <defs>
        <path id="TimesNewRomanPSMT-30" d="M 231 2094 
Q 231 2819 450 3342 
Q 669 3866 1031 4122 
Q 1313 4325 1613 4325 
Q 2100 4325 2488 3828 
Q 2972 3213 2972 2159 
Q 2972 1422 2759 906 
Q 2547 391 2217 158 
Q 1888 -75 1581 -75 
Q 975 -75 572 641 
Q 231 1244 231 2094 
z
M 844 2016 
Q 844 1141 1059 588 
Q 1238 122 1591 122 
Q 1759 122 1940 273 
Q 2122 425 2216 781 
Q 2359 1319 2359 2297 
Q 2359 3022 2209 3506 
Q 2097 3866 1919 4016 
Q 1791 4119 1609 4119 
Q 1397 4119 1231 3928 
Q 1006 3669 925 3112 
Q 844 2556 844 2016 
z
" transform="scale(0.015625)"/>
       </defs>
       <use xlink:href="#TimesNewRomanPSMT-30"/>
      </g>
     </g>
    </g>
    <g id="xtick_2">
     <g id="line2d_3">
      <path d="M 250.225 314.9095 
L 250.225 7.2 
" clip-path="url(#p3cd17e6c4b)" style="fill: none; stroke: #b0b0b0; stroke-width: 0.8; stroke-linecap: square"/>
     </g>
     <g id="line2d_4">
      <g>
       <use xlink:href="#mfec3d0b817" x="250.225" y="314.9095" style="stroke: #000000; stroke-width: 0.8"/>
      </g>
     </g>
     <g id="text_2">
      <!-- 1000 -->
      <g transform="translate(232.225 334.40825)scale(0.18 -0.18)">
       <defs>
        <path id="TimesNewRomanPSMT-31" d="M 750 3822 
L 1781 4325 
L 1884 4325 
L 1884 747 
Q 1884 391 1914 303 
Q 1944 216 2037 169 
Q 2131 122 2419 116 
L 2419 0 
L 825 0 
L 825 116 
Q 1125 122 1212 167 
Q 1300 213 1334 289 
Q 1369 366 1369 747 
L 1369 3034 
Q 1369 3497 1338 3628 
Q 1316 3728 1258 3775 
Q 1200 3822 1119 3822 
Q 1003 3822 797 3725 
L 750 3822 
z
" transform="scale(0.015625)"/>
       </defs>
       <use xlink:href="#TimesNewRomanPSMT-31"/>
       <use xlink:href="#TimesNewRomanPSMT-30" x="50"/>
       <use xlink:href="#TimesNewRomanPSMT-30" x="100"/>
       <use xlink:href="#TimesNewRomanPSMT-30" x="150"/>
      </g>
     </g>
    </g>
    <g id="xtick_3">
     <g id="line2d_5">
      <path d="M 398.005 314.9095 
L 398.005 7.2 
" clip-path="url(#p3cd17e6c4b)" style="fill: none; stroke: #b0b0b0; stroke-width: 0.8; stroke-linecap: square"/>
     </g>
     <g id="line2d_6">
      <g>
       <use xlink:href="#mfec3d0b817" x="398.005" y="314.9095" style="stroke: #000000; stroke-width: 0.8"/>
      </g>
     </g>
     <g id="text_3">
      <!-- 2000 -->
      <g transform="translate(380.005 334.40825)scale(0.18 -0.18)">
       <defs>
        <path id="TimesNewRomanPSMT-32" d="M 2934 816 
L 2638 0 
L 138 0 
L 138 116 
Q 1241 1122 1691 1759 
Q 2141 2397 2141 2925 
Q 2141 3328 1894 3587 
Q 1647 3847 1303 3847 
Q 991 3847 742 3664 
Q 494 3481 375 3128 
L 259 3128 
Q 338 3706 661 4015 
Q 984 4325 1469 4325 
Q 1984 4325 2329 3994 
Q 2675 3663 2675 3213 
Q 2675 2891 2525 2569 
Q 2294 2063 1775 1497 
Q 997 647 803 472 
L 1909 472 
Q 2247 472 2383 497 
Q 2519 522 2628 598 
Q 2738 675 2819 816 
L 2934 816 
z
" transform="scale(0.015625)"/>
       </defs>
       <use xlink:href="#TimesNewRomanPSMT-32"/>
       <use xlink:href="#TimesNewRomanPSMT-30" x="50"/>
       <use xlink:href="#TimesNewRomanPSMT-30" x="100"/>
       <use xlink:href="#TimesNewRomanPSMT-30" x="150"/>
      </g>
     </g>
    </g>
    <g id="xtick_4">
     <g id="line2d_7">
      <path d="M 545.785 314.9095 
L 545.785 7.2 
" clip-path="url(#p3cd17e6c4b)" style="fill: none; stroke: #b0b0b0; stroke-width: 0.8; stroke-linecap: square"/>
     </g>
     <g id="line2d_8">
      <g>
       <use xlink:href="#mfec3d0b817" x="545.785" y="314.9095" style="stroke: #000000; stroke-width: 0.8"/>
      </g>
     </g>
     <g id="text_4">
      <!-- 3000 -->
      <g transform="translate(527.785 334.40825)scale(0.18 -0.18)">
       <defs>
        <path id="TimesNewRomanPSMT-33" d="M 325 3431 
Q 506 3859 782 4092 
Q 1059 4325 1472 4325 
Q 1981 4325 2253 3994 
Q 2459 3747 2459 3466 
Q 2459 3003 1878 2509 
Q 2269 2356 2469 2072 
Q 2669 1788 2669 1403 
Q 2669 853 2319 450 
Q 1863 -75 997 -75 
Q 569 -75 414 31 
Q 259 138 259 259 
Q 259 350 332 419 
Q 406 488 509 488 
Q 588 488 669 463 
Q 722 447 909 348 
Q 1097 250 1169 231 
Q 1284 197 1416 197 
Q 1734 197 1970 444 
Q 2206 691 2206 1028 
Q 2206 1275 2097 1509 
Q 2016 1684 1919 1775 
Q 1784 1900 1550 2001 
Q 1316 2103 1072 2103 
L 972 2103 
L 972 2197 
Q 1219 2228 1467 2375 
Q 1716 2522 1828 2728 
Q 1941 2934 1941 3181 
Q 1941 3503 1739 3701 
Q 1538 3900 1238 3900 
Q 753 3900 428 3381 
L 325 3431 
z
" transform="scale(0.015625)"/>
       </defs>
       <use xlink:href="#TimesNewRomanPSMT-33"/>
       <use xlink:href="#TimesNewRomanPSMT-30" x="50"/>
       <use xlink:href="#TimesNewRomanPSMT-30" x="100"/>
       <use xlink:href="#TimesNewRomanPSMT-30" x="150"/>
      </g>
     </g>
    </g>
    <g id="xtick_5">
     <g id="line2d_9">
      <path d="M 693.565 314.9095 
L 693.565 7.2 
" clip-path="url(#p3cd17e6c4b)" style="fill: none; stroke: #b0b0b0; stroke-width: 0.8; stroke-linecap: square"/>
     </g>
     <g id="line2d_10">
      <g>
       <use xlink:href="#mfec3d0b817" x="693.565" y="314.9095" style="stroke: #000000; stroke-width: 0.8"/>
      </g>
     </g>
     <g id="text_5">
      <!-- 4000 -->
      <g transform="translate(675.565 334.40825)scale(0.18 -0.18)">
       <defs>
        <path id="TimesNewRomanPSMT-34" d="M 2978 1563 
L 2978 1119 
L 2409 1119 
L 2409 0 
L 1894 0 
L 1894 1119 
L 100 1119 
L 100 1519 
L 2066 4325 
L 2409 4325 
L 2409 1563 
L 2978 1563 
z
M 1894 1563 
L 1894 3666 
L 406 1563 
L 1894 1563 
z
" transform="scale(0.015625)"/>
       </defs>
       <use xlink:href="#TimesNewRomanPSMT-34"/>
       <use xlink:href="#TimesNewRomanPSMT-30" x="50"/>
       <use xlink:href="#TimesNewRomanPSMT-30" x="100"/>
       <use xlink:href="#TimesNewRomanPSMT-30" x="150"/>
      </g>
     </g>
    </g>
    <g id="xtick_6">
     <g id="line2d_11">
      <path d="M 841.345 314.9095 
L 841.345 7.2 
" clip-path="url(#p3cd17e6c4b)" style="fill: none; stroke: #b0b0b0; stroke-width: 0.8; stroke-linecap: square"/>
     </g>
     <g id="line2d_12">
      <g>
       <use xlink:href="#mfec3d0b817" x="841.345" y="314.9095" style="stroke: #000000; stroke-width: 0.8"/>
      </g>
     </g>
     <g id="text_6">
      <!-- 5000 -->
      <g transform="translate(823.345 334.40825)scale(0.18 -0.18)">
       <defs>
        <path id="TimesNewRomanPSMT-35" d="M 2778 4238 
L 2534 3706 
L 1259 3706 
L 981 3138 
Q 1809 3016 2294 2522 
Q 2709 2097 2709 1522 
Q 2709 1188 2573 903 
Q 2438 619 2231 419 
Q 2025 219 1772 97 
Q 1413 -75 1034 -75 
Q 653 -75 479 54 
Q 306 184 306 341 
Q 306 428 378 495 
Q 450 563 559 563 
Q 641 563 702 538 
Q 763 513 909 409 
Q 1144 247 1384 247 
Q 1750 247 2026 523 
Q 2303 800 2303 1197 
Q 2303 1581 2056 1914 
Q 1809 2247 1375 2428 
Q 1034 2569 447 2591 
L 1259 4238 
L 2778 4238 
z
" transform="scale(0.015625)"/>
       </defs>
       <use xlink:href="#TimesNewRomanPSMT-35"/>
       <use xlink:href="#TimesNewRomanPSMT-30" x="50"/>
       <use xlink:href="#TimesNewRomanPSMT-30" x="100"/>
       <use xlink:href="#TimesNewRomanPSMT-30" x="150"/>
      </g>
     </g>
    </g>
    <g id="text_7">
     <!-- Epoch -->
     <g transform="translate(441.23875 358.923562)scale(0.24 -0.24)">
      <defs>
       <path id="TimesNewRomanPSMT-45" d="M 1338 4006 
L 1338 2331 
L 2269 2331 
Q 2631 2331 2753 2441 
Q 2916 2584 2934 2947 
L 3050 2947 
L 3050 1472 
L 2934 1472 
Q 2891 1781 2847 1869 
Q 2791 1978 2662 2040 
Q 2534 2103 2269 2103 
L 1338 2103 
L 1338 706 
Q 1338 425 1363 364 
Q 1388 303 1450 267 
Q 1513 231 1688 231 
L 2406 231 
Q 2766 231 2928 281 
Q 3091 331 3241 478 
Q 3434 672 3638 1063 
L 3763 1063 
L 3397 0 
L 131 0 
L 131 116 
L 281 116 
Q 431 116 566 188 
Q 666 238 702 338 
Q 738 438 738 747 
L 738 3500 
Q 738 3903 656 3997 
Q 544 4122 281 4122 
L 131 4122 
L 131 4238 
L 3397 4238 
L 3444 3309 
L 3322 3309 
Q 3256 3644 3176 3769 
Q 3097 3894 2941 3959 
Q 2816 4006 2500 4006 
L 1338 4006 
z
" transform="scale(0.015625)"/>
       <path id="TimesNewRomanPSMT-70" d="M -6 2578 
L 875 2934 
L 994 2934 
L 994 2266 
Q 1216 2644 1439 2795 
Q 1663 2947 1909 2947 
Q 2341 2947 2628 2609 
Q 2981 2197 2981 1534 
Q 2981 794 2556 309 
Q 2206 -88 1675 -88 
Q 1444 -88 1275 -22 
Q 1150 25 994 166 
L 994 -706 
Q 994 -1000 1030 -1079 
Q 1066 -1159 1155 -1206 
Q 1244 -1253 1478 -1253 
L 1478 -1369 
L -22 -1369 
L -22 -1253 
L 56 -1253 
Q 228 -1256 350 -1188 
Q 409 -1153 442 -1076 
Q 475 -1000 475 -688 
L 475 2019 
Q 475 2297 450 2372 
Q 425 2447 370 2484 
Q 316 2522 222 2522 
Q 147 2522 31 2478 
L -6 2578 
z
M 994 2081 
L 994 1013 
Q 994 666 1022 556 
Q 1066 375 1236 237 
Q 1406 100 1666 100 
Q 1978 100 2172 344 
Q 2425 663 2425 1241 
Q 2425 1897 2138 2250 
Q 1938 2494 1663 2494 
Q 1513 2494 1366 2419 
Q 1253 2363 994 2081 
z
" transform="scale(0.015625)"/>
       <path id="TimesNewRomanPSMT-6f" d="M 1600 2947 
Q 2250 2947 2644 2453 
Q 2978 2031 2978 1484 
Q 2978 1100 2793 706 
Q 2609 313 2286 112 
Q 1963 -88 1566 -88 
Q 919 -88 538 428 
Q 216 863 216 1403 
Q 216 1797 411 2186 
Q 606 2575 925 2761 
Q 1244 2947 1600 2947 
z
M 1503 2744 
Q 1338 2744 1170 2645 
Q 1003 2547 900 2300 
Q 797 2053 797 1666 
Q 797 1041 1045 587 
Q 1294 134 1700 134 
Q 2003 134 2200 384 
Q 2397 634 2397 1244 
Q 2397 2006 2069 2444 
Q 1847 2744 1503 2744 
z
" transform="scale(0.015625)"/>
       <path id="TimesNewRomanPSMT-63" d="M 2631 1088 
Q 2516 522 2178 217 
Q 1841 -88 1431 -88 
Q 944 -88 581 321 
Q 219 731 219 1428 
Q 219 2103 620 2525 
Q 1022 2947 1584 2947 
Q 2006 2947 2278 2723 
Q 2550 2500 2550 2259 
Q 2550 2141 2473 2067 
Q 2397 1994 2259 1994 
Q 2075 1994 1981 2113 
Q 1928 2178 1911 2362 
Q 1894 2547 1784 2644 
Q 1675 2738 1481 2738 
Q 1169 2738 978 2506 
Q 725 2200 725 1697 
Q 725 1184 976 792 
Q 1228 400 1656 400 
Q 1963 400 2206 609 
Q 2378 753 2541 1131 
L 2631 1088 
z
" transform="scale(0.015625)"/>
       <path id="TimesNewRomanPSMT-68" d="M 1041 4444 
L 1041 2350 
Q 1388 2731 1591 2839 
Q 1794 2947 1997 2947 
Q 2241 2947 2416 2812 
Q 2591 2678 2675 2391 
Q 2734 2191 2734 1659 
L 2734 647 
Q 2734 375 2778 275 
Q 2809 200 2884 156 
Q 2959 113 3159 113 
L 3159 0 
L 1753 0 
L 1753 113 
L 1819 113 
Q 2019 113 2097 173 
Q 2175 234 2206 353 
Q 2216 403 2216 647 
L 2216 1659 
Q 2216 2128 2167 2275 
Q 2119 2422 2012 2495 
Q 1906 2569 1756 2569 
Q 1603 2569 1437 2487 
Q 1272 2406 1041 2159 
L 1041 647 
Q 1041 353 1073 281 
Q 1106 209 1195 161 
Q 1284 113 1503 113 
L 1503 0 
L 84 0 
L 84 113 
Q 275 113 384 172 
Q 447 203 484 290 
Q 522 378 522 647 
L 522 3238 
Q 522 3728 498 3840 
Q 475 3953 426 3993 
Q 378 4034 297 4034 
Q 231 4034 84 3984 
L 41 4094 
L 897 4444 
L 1041 4444 
z
" transform="scale(0.015625)"/>
      </defs>
      <use xlink:href="#TimesNewRomanPSMT-45"/>
      <use xlink:href="#TimesNewRomanPSMT-70" x="61.083984"/>
      <use xlink:href="#TimesNewRomanPSMT-6f" x="111.083984"/>
      <use xlink:href="#TimesNewRomanPSMT-63" x="161.083984"/>
      <use xlink:href="#TimesNewRomanPSMT-68" x="205.46875"/>
     </g>
    </g>
   </g>
   <g id="matplotlib.axis_2">
    <g id="ytick_1">
     <g id="line2d_13">
      <path d="M 65.5 262.28877 
L 878.29 262.28877 
" clip-path="url(#p3cd17e6c4b)" style="fill: none; stroke: #b0b0b0; stroke-width: 0.8; stroke-linecap: square"/>
     </g>
     <g id="line2d_14">
      <defs>
       <path id="mf3c92236b9" d="M 0 0 
L -3.5 0 
" style="stroke: #000000; stroke-width: 0.8"/>
      </defs>
      <g>
       <use xlink:href="#mf3c92236b9" x="65.5" y="262.28877" style="stroke: #000000; stroke-width: 0.8"/>
      </g>
     </g>
     <g id="text_8">
      <!-- 0.2 -->
      <g transform="translate(36 268.538145)scale(0.18 -0.18)">
       <defs>
        <path id="TimesNewRomanPSMT-2e" d="M 800 606 
Q 947 606 1047 504 
Q 1147 403 1147 259 
Q 1147 116 1045 14 
Q 944 -88 800 -88 
Q 656 -88 554 14 
Q 453 116 453 259 
Q 453 406 554 506 
Q 656 606 800 606 
z
" transform="scale(0.015625)"/>
       </defs>
       <use xlink:href="#TimesNewRomanPSMT-30"/>
       <use xlink:href="#TimesNewRomanPSMT-2e" x="50"/>
       <use xlink:href="#TimesNewRomanPSMT-32" x="75"/>
      </g>
     </g>
    </g>
    <g id="ytick_2">
     <g id="line2d_15">
      <path d="M 65.5 202.013277 
L 878.29 202.013277 
" clip-path="url(#p3cd17e6c4b)" style="fill: none; stroke: #b0b0b0; stroke-width: 0.8; stroke-linecap: square"/>
     </g>
     <g id="line2d_16">
      <g>
       <use xlink:href="#mf3c92236b9" x="65.5" y="202.013277" style="stroke: #000000; stroke-width: 0.8"/>
      </g>
     </g>
     <g id="text_9">
      <!-- 0.4 -->
      <g transform="translate(36 208.262652)scale(0.18 -0.18)">
       <use xlink:href="#TimesNewRomanPSMT-30"/>
       <use xlink:href="#TimesNewRomanPSMT-2e" x="50"/>
       <use xlink:href="#TimesNewRomanPSMT-34" x="75"/>
      </g>
     </g>
    </g>
    <g id="ytick_3">
     <g id="line2d_17">
      <path d="M 65.5 141.737783 
L 878.29 141.737783 
" clip-path="url(#p3cd17e6c4b)" style="fill: none; stroke: #b0b0b0; stroke-width: 0.8; stroke-linecap: square"/>
     </g>
     <g id="line2d_18">
      <g>
       <use xlink:href="#mf3c92236b9" x="65.5" y="141.737783" style="stroke: #000000; stroke-width: 0.8"/>
      </g>
     </g>
     <g id="text_10">
      <!-- 0.6 -->
      <g transform="translate(36 147.987158)scale(0.18 -0.18)">
       <defs>
        <path id="TimesNewRomanPSMT-36" d="M 2869 4325 
L 2869 4209 
Q 2456 4169 2195 4045 
Q 1934 3922 1679 3669 
Q 1425 3416 1258 3105 
Q 1091 2794 978 2366 
Q 1428 2675 1881 2675 
Q 2316 2675 2634 2325 
Q 2953 1975 2953 1425 
Q 2953 894 2631 456 
Q 2244 -75 1606 -75 
Q 1172 -75 869 213 
Q 275 772 275 1663 
Q 275 2231 503 2743 
Q 731 3256 1154 3653 
Q 1578 4050 1965 4187 
Q 2353 4325 2688 4325 
L 2869 4325 
z
M 925 2138 
Q 869 1716 869 1456 
Q 869 1156 980 804 
Q 1091 453 1309 247 
Q 1469 100 1697 100 
Q 1969 100 2183 356 
Q 2397 613 2397 1088 
Q 2397 1622 2184 2012 
Q 1972 2403 1581 2403 
Q 1463 2403 1327 2353 
Q 1191 2303 925 2138 
z
" transform="scale(0.015625)"/>
       </defs>
       <use xlink:href="#TimesNewRomanPSMT-30"/>
       <use xlink:href="#TimesNewRomanPSMT-2e" x="50"/>
       <use xlink:href="#TimesNewRomanPSMT-36" x="75"/>
      </g>
     </g>
    </g>
    <g id="ytick_4">
     <g id="line2d_19">
      <path d="M 65.5 81.462289 
L 878.29 81.462289 
" clip-path="url(#p3cd17e6c4b)" style="fill: none; stroke: #b0b0b0; stroke-width: 0.8; stroke-linecap: square"/>
     </g>
     <g id="line2d_20">
      <g>
       <use xlink:href="#mf3c92236b9" x="65.5" y="81.462289" style="stroke: #000000; stroke-width: 0.8"/>
      </g>
     </g>
     <g id="text_11">
      <!-- 0.8 -->
      <g transform="translate(36 87.711664)scale(0.18 -0.18)">
       <defs>
        <path id="TimesNewRomanPSMT-38" d="M 1228 2134 
Q 725 2547 579 2797 
Q 434 3047 434 3316 
Q 434 3728 753 4026 
Q 1072 4325 1600 4325 
Q 2113 4325 2425 4047 
Q 2738 3769 2738 3413 
Q 2738 3175 2569 2928 
Q 2400 2681 1866 2347 
Q 2416 1922 2594 1678 
Q 2831 1359 2831 1006 
Q 2831 559 2490 242 
Q 2150 -75 1597 -75 
Q 994 -75 656 303 
Q 388 606 388 966 
Q 388 1247 577 1523 
Q 766 1800 1228 2134 
z
M 1719 2469 
Q 2094 2806 2194 3001 
Q 2294 3197 2294 3444 
Q 2294 3772 2109 3958 
Q 1925 4144 1606 4144 
Q 1288 4144 1088 3959 
Q 888 3775 888 3528 
Q 888 3366 970 3203 
Q 1053 3041 1206 2894 
L 1719 2469 
z
M 1375 2016 
Q 1116 1797 991 1539 
Q 866 1281 866 981 
Q 866 578 1086 336 
Q 1306 94 1647 94 
Q 1984 94 2187 284 
Q 2391 475 2391 747 
Q 2391 972 2272 1150 
Q 2050 1481 1375 2016 
z
" transform="scale(0.015625)"/>
       </defs>
       <use xlink:href="#TimesNewRomanPSMT-30"/>
       <use xlink:href="#TimesNewRomanPSMT-2e" x="50"/>
       <use xlink:href="#TimesNewRomanPSMT-38" x="75"/>
      </g>
     </g>
    </g>
    <g id="ytick_5">
     <g id="line2d_21">
      <path d="M 65.5 21.186795 
L 878.29 21.186795 
" clip-path="url(#p3cd17e6c4b)" style="fill: none; stroke: #b0b0b0; stroke-width: 0.8; stroke-linecap: square"/>
     </g>
     <g id="line2d_22">
      <g>
       <use xlink:href="#mf3c92236b9" x="65.5" y="21.186795" style="stroke: #000000; stroke-width: 0.8"/>
      </g>
     </g>
     <g id="text_12">
      <!-- 1.0 -->
      <g transform="translate(36 27.43617)scale(0.18 -0.18)">
       <use xlink:href="#TimesNewRomanPSMT-31"/>
       <use xlink:href="#TimesNewRomanPSMT-2e" x="50"/>
       <use xlink:href="#TimesNewRomanPSMT-30" x="75"/>
      </g>
     </g>
    </g>
    <g id="text_13">
     <!-- Accuracy -->
     <g transform="translate(26.82125 207.024125)rotate(-90)scale(0.24 -0.24)">
      <defs>
       <path id="TimesNewRomanPSMT-41" d="M 2928 1419 
L 1288 1419 
L 1000 750 
Q 894 503 894 381 
Q 894 284 986 211 
Q 1078 138 1384 116 
L 1384 0 
L 50 0 
L 50 116 
Q 316 163 394 238 
Q 553 388 747 847 
L 2238 4334 
L 2347 4334 
L 3822 809 
Q 4000 384 4145 257 
Q 4291 131 4550 116 
L 4550 0 
L 2878 0 
L 2878 116 
Q 3131 128 3220 200 
Q 3309 272 3309 375 
Q 3309 513 3184 809 
L 2928 1419 
z
M 2841 1650 
L 2122 3363 
L 1384 1650 
L 2841 1650 
z
" transform="scale(0.015625)"/>
       <path id="TimesNewRomanPSMT-75" d="M 2709 2863 
L 2709 1128 
Q 2709 631 2732 520 
Q 2756 409 2807 365 
Q 2859 322 2928 322 
Q 3025 322 3147 375 
L 3191 266 
L 2334 -88 
L 2194 -88 
L 2194 519 
Q 1825 119 1631 15 
Q 1438 -88 1222 -88 
Q 981 -88 804 51 
Q 628 191 559 409 
Q 491 628 491 1028 
L 491 2306 
Q 491 2509 447 2587 
Q 403 2666 317 2708 
Q 231 2750 6 2747 
L 6 2863 
L 1009 2863 
L 1009 947 
Q 1009 547 1148 422 
Q 1288 297 1484 297 
Q 1619 297 1789 381 
Q 1959 466 2194 703 
L 2194 2325 
Q 2194 2569 2105 2655 
Q 2016 2741 1734 2747 
L 1734 2863 
L 2709 2863 
z
" transform="scale(0.015625)"/>
       <path id="TimesNewRomanPSMT-72" d="M 1038 2947 
L 1038 2303 
Q 1397 2947 1775 2947 
Q 1947 2947 2059 2842 
Q 2172 2738 2172 2600 
Q 2172 2478 2090 2393 
Q 2009 2309 1897 2309 
Q 1788 2309 1652 2417 
Q 1516 2525 1450 2525 
Q 1394 2525 1328 2463 
Q 1188 2334 1038 2041 
L 1038 669 
Q 1038 431 1097 309 
Q 1138 225 1241 169 
Q 1344 113 1538 113 
L 1538 0 
L 72 0 
L 72 113 
Q 291 113 397 181 
Q 475 231 506 341 
Q 522 394 522 644 
L 522 1753 
Q 522 2253 501 2348 
Q 481 2444 426 2487 
Q 372 2531 291 2531 
Q 194 2531 72 2484 
L 41 2597 
L 906 2947 
L 1038 2947 
z
" transform="scale(0.015625)"/>
       <path id="TimesNewRomanPSMT-61" d="M 1822 413 
Q 1381 72 1269 19 
Q 1100 -59 909 -59 
Q 613 -59 420 144 
Q 228 347 228 678 
Q 228 888 322 1041 
Q 450 1253 767 1440 
Q 1084 1628 1822 1897 
L 1822 2009 
Q 1822 2438 1686 2597 
Q 1550 2756 1291 2756 
Q 1094 2756 978 2650 
Q 859 2544 859 2406 
L 866 2225 
Q 866 2081 792 2003 
Q 719 1925 600 1925 
Q 484 1925 411 2006 
Q 338 2088 338 2228 
Q 338 2497 613 2722 
Q 888 2947 1384 2947 
Q 1766 2947 2009 2819 
Q 2194 2722 2281 2516 
Q 2338 2381 2338 1966 
L 2338 994 
Q 2338 584 2353 492 
Q 2369 400 2405 369 
Q 2441 338 2488 338 
Q 2538 338 2575 359 
Q 2641 400 2828 588 
L 2828 413 
Q 2478 -56 2159 -56 
Q 2006 -56 1915 50 
Q 1825 156 1822 413 
z
M 1822 616 
L 1822 1706 
Q 1350 1519 1213 1441 
Q 966 1303 859 1153 
Q 753 1003 753 825 
Q 753 600 887 451 
Q 1022 303 1197 303 
Q 1434 303 1822 616 
z
" transform="scale(0.015625)"/>
       <path id="TimesNewRomanPSMT-79" d="M 38 2863 
L 1372 2863 
L 1372 2747 
L 1306 2747 
Q 1166 2747 1095 2686 
Q 1025 2625 1025 2534 
Q 1025 2413 1128 2197 
L 1825 753 
L 2466 2334 
Q 2519 2463 2519 2588 
Q 2519 2644 2497 2672 
Q 2472 2706 2419 2726 
Q 2366 2747 2231 2747 
L 2231 2863 
L 3163 2863 
L 3163 2747 
Q 3047 2734 2984 2696 
Q 2922 2659 2847 2556 
Q 2819 2513 2741 2316 
L 1575 -541 
Q 1406 -956 1132 -1168 
Q 859 -1381 606 -1381 
Q 422 -1381 303 -1275 
Q 184 -1169 184 -1031 
Q 184 -900 270 -820 
Q 356 -741 506 -741 
Q 609 -741 788 -809 
Q 913 -856 944 -856 
Q 1038 -856 1148 -759 
Q 1259 -663 1372 -384 
L 1575 113 
L 547 2272 
Q 500 2369 397 2513 
Q 319 2622 269 2659 
Q 197 2709 38 2747 
L 38 2863 
z
" transform="scale(0.015625)"/>
      </defs>
      <use xlink:href="#TimesNewRomanPSMT-41"/>
      <use xlink:href="#TimesNewRomanPSMT-63" x="72.216797"/>
      <use xlink:href="#TimesNewRomanPSMT-63" x="116.601562"/>
      <use xlink:href="#TimesNewRomanPSMT-75" x="160.986328"/>
      <use xlink:href="#TimesNewRomanPSMT-72" x="210.986328"/>
      <use xlink:href="#TimesNewRomanPSMT-61" x="244.287109"/>
      <use xlink:href="#TimesNewRomanPSMT-63" x="288.671875"/>
      <use xlink:href="#TimesNewRomanPSMT-79" x="333.056641"/>
     </g>
    </g>
   </g>
   <g id="line2d_23">
    <path d="M 102.445 262.318908 
L 117.223 66.061901 
L 132.001 67.418099 
L 146.779 47.918977 
L 161.557 40.263989 
L 176.335 38.124209 
L 191.113 36.707735 
L 205.891 35.863878 
L 220.669 35.200848 
L 235.447 34.447404 
L 250.225 33.603547 
L 265.003 33.061068 
L 279.781 32.699415 
L 294.559 32.398037 
L 309.337 32.187073 
L 324.115 31.945971 
L 338.893 31.735007 
L 353.671 31.644594 
L 368.449 31.403492 
L 383.227 31.222665 
L 398.005 31.071976 
L 412.783 30.800737 
L 427.561 30.650048 
L 442.339 30.650048 
L 457.117 30.61991 
L 471.895 30.408946 
L 486.673 30.740461 
L 501.451 30.861012 
L 516.229 30.861012 
L 531.007 30.981563 
L 545.785 31.011701 
L 560.563 30.951425 
L 575.341 31.011701 
L 590.119 31.041839 
L 604.897 30.951425 
L 619.675 31.071976 
L 634.453 30.951425 
L 649.231 31.011701 
L 664.009 31.102114 
L 678.787 31.071976 
L 693.565 31.132252 
L 708.343 31.102114 
L 723.121 31.102114 
L 737.899 31.102114 
L 752.677 31.102114 
L 767.455 31.132252 
L 782.233 31.071976 
L 797.011 31.071976 
L 811.789 31.071976 
L 826.567 30.981563 
L 841.345 31.071976 
" clip-path="url(#p3cd17e6c4b)" style="fill: none; stroke: #ff7f0e; stroke-width: 2; stroke-linecap: square"/>
   </g>
   <g id="line2d_24">
    <path d="M 102.445 262.722754 
L 117.223 76.061605 
L 132.001 76.085715 
L 146.779 55.465469 
L 161.557 51.891132 
L 176.335 52.126206 
L 191.113 55.073678 
L 205.891 58.919255 
L 220.669 62.98785 
L 235.447 71.293813 
L 250.225 72.523433 
L 265.003 78.569065 
L 279.781 60.697382 
L 294.559 75.983247 
L 309.337 82.987259 
L 324.115 98.146546 
L 338.893 88.134786 
L 353.671 82.848626 
L 368.449 98.393675 
L 383.227 99.490689 
L 398.005 131.93096 
L 412.783 97.326799 
L 427.561 106.814162 
L 442.339 107.995561 
L 457.117 105.494129 
L 471.895 116.910307 
L 486.673 100.430987 
L 501.451 119.025977 
L 516.229 92.167217 
L 531.007 87.176406 
L 545.785 131.430673 
L 560.563 132.081649 
L 575.341 101.214568 
L 590.119 126.253009 
L 604.897 102.751594 
L 619.675 102.383913 
L 634.453 93.848903 
L 649.231 95.813884 
L 664.009 109.267374 
L 678.787 87.489839 
L 693.565 102.504464 
L 708.343 94.011647 
L 723.121 105.078228 
L 737.899 102.118701 
L 752.677 110.864675 
L 767.455 82.818488 
L 782.233 116.874142 
L 797.011 102.805841 
L 811.789 98.363538 
L 826.567 99.502744 
L 841.345 101.40745 
" clip-path="url(#p3cd17e6c4b)" style="fill: none; stroke-dasharray: 7.4,3.2; stroke-dashoffset: 0; stroke: #ff7f0e; stroke-width: 2"/>
   </g>
   <g id="line2d_25">
    <path d="M 102.445 262.28877 
L 117.223 204.484572 
L 132.001 199.813221 
L 146.779 148.609189 
L 161.557 102.860089 
L 176.335 95.35579 
L 191.113 78.116999 
L 205.891 49.335451 
L 220.669 42.13253 
L 235.447 37.491317 
L 250.225 34.477542 
L 265.003 32.187073 
L 279.781 30.650048 
L 294.559 29.02261 
L 309.337 27.967788 
L 324.115 26.943105 
L 338.893 26.219799 
L 353.671 25.918422 
L 368.449 25.586906 
L 383.227 25.225254 
L 398.005 24.923876 
L 412.783 24.652636 
L 427.561 24.351259 
L 442.339 24.110157 
L 457.117 23.808779 
L 471.895 23.477264 
L 486.673 23.53754 
L 501.451 23.477264 
L 516.229 23.447126 
L 531.007 23.447126 
L 545.785 23.447126 
L 560.563 23.447126 
L 575.341 23.447126 
L 590.119 23.447126 
L 604.897 23.447126 
L 619.675 23.386851 
L 634.453 23.296438 
L 649.231 23.236162 
L 664.009 23.206024 
L 678.787 23.206024 
L 693.565 23.206024 
L 708.343 23.206024 
L 723.121 23.085474 
L 737.899 23.085474 
L 752.677 22.99506 
L 767.455 23.025198 
L 782.233 22.99506 
L 797.011 22.934785 
L 811.789 22.904647 
L 826.567 22.874509 
L 841.345 22.784096 
" clip-path="url(#p3cd17e6c4b)" style="fill: none; stroke: #2ca02c; stroke-width: 2; stroke-linecap: square"/>
   </g>
   <g id="line2d_26">
    <path d="M 102.445 262.481652 
L 117.223 206.708738 
L 132.001 202.597949 
L 146.779 155.221411 
L 161.557 111.166052 
L 176.335 103.27599 
L 191.113 93.288341 
L 205.891 74.458277 
L 220.669 75.151445 
L 235.447 92.878468 
L 250.225 95.446204 
L 265.003 122.48579 
L 279.781 108.134195 
L 294.559 131.418618 
L 309.337 156.740353 
L 324.115 174.244357 
L 338.893 165.034261 
L 353.671 160.827032 
L 368.449 197.468504 
L 383.227 194.430619 
L 398.005 221.699253 
L 412.783 214.436056 
L 427.561 204.339911 
L 442.339 206.660517 
L 457.117 219.842768 
L 471.895 224.65878 
L 486.673 185.871499 
L 501.451 231.554296 
L 516.229 181.459333 
L 531.007 182.948138 
L 545.785 234.694649 
L 560.563 232.476511 
L 575.341 220.49977 
L 590.119 224.875771 
L 604.897 242.247169 
L 619.675 204.61115 
L 634.453 200.313508 
L 649.231 217.956145 
L 664.009 207.184914 
L 678.787 192.248647 
L 693.565 214.851957 
L 708.343 203.984285 
L 723.121 211.777907 
L 737.899 187.137285 
L 752.677 221.723363 
L 767.455 182.459906 
L 782.233 208.149322 
L 797.011 193.231137 
L 811.789 226.274163 
L 826.567 191.037109 
L 841.345 206.40736 
" clip-path="url(#p3cd17e6c4b)" style="fill: none; stroke-dasharray: 7.4,3.2; stroke-dashoffset: 0; stroke: #2ca02c; stroke-width: 2"/>
   </g>
   <g id="line2d_27">
    <path d="M 102.445 262.28877 
L 117.223 40.65578 
L 132.001 34.356991 
L 146.779 30.861012 
L 161.557 27.997926 
L 176.335 25.918422 
L 191.113 25.13484 
L 205.891 24.110157 
L 220.669 23.356713 
L 235.447 22.844372 
L 250.225 22.452581 
L 265.003 22.241617 
L 279.781 22.090928 
L 294.559 22.06079 
L 309.337 22.000515 
L 324.115 21.879964 
L 338.893 21.849826 
L 353.671 21.819688 
L 368.449 21.78955 
L 383.227 21.78955 
L 398.005 21.729275 
L 412.783 21.699137 
L 427.561 21.699137 
L 442.339 21.608724 
L 457.117 21.578586 
L 471.895 21.548448 
L 486.673 21.518311 
L 501.451 21.518311 
L 516.229 21.518311 
L 531.007 21.488173 
L 545.785 21.488173 
L 560.563 21.458035 
L 575.341 21.458035 
L 590.119 21.458035 
L 604.897 21.488173 
L 619.675 21.458035 
L 634.453 21.458035 
L 649.231 21.458035 
L 664.009 21.458035 
L 678.787 21.427897 
L 693.565 21.39776 
L 708.343 21.367622 
L 723.121 21.337484 
L 737.899 21.337484 
L 752.677 21.337484 
L 767.455 21.307346 
L 782.233 21.307346 
L 797.011 21.307346 
L 811.789 21.307346 
L 826.567 21.277209 
L 841.345 21.277209 
" clip-path="url(#p3cd17e6c4b)" style="fill: none; stroke: #d62728; stroke-width: 2; stroke-linecap: square"/>
   </g>
   <g id="line2d_28">
    <path d="M 102.445 262.5359 
L 117.223 52.26484 
L 132.001 63.57855 
L 146.779 79.774575 
L 161.557 119.303244 
L 176.335 147.114357 
L 191.113 169.102857 
L 205.891 192.097958 
L 220.669 200.452141 
L 235.447 239.70957 
L 250.225 220.023594 
L 265.003 214.207009 
L 279.781 201.356274 
L 294.559 218.968773 
L 309.337 228.329557 
L 324.115 236.798264 
L 338.893 202.067525 
L 353.671 205.12952 
L 368.449 225.544829 
L 383.227 215.629511 
L 398.005 228.12462 
L 412.783 218.58301 
L 427.561 216.587891 
L 442.339 212.434909 
L 457.117 235.303432 
L 471.895 252.017826 
L 486.673 183.791995 
L 501.451 219.432894 
L 516.229 201.51299 
L 531.007 186.407951 
L 545.785 237.828975 
L 560.563 250.547104 
L 575.341 243.525009 
L 590.119 219.710162 
L 604.897 240.93919 
L 619.675 217.009819 
L 634.453 198.607711 
L 649.231 213.550006 
L 664.009 208.782215 
L 678.787 201.796285 
L 693.565 227.401315 
L 708.343 208.149322 
L 723.121 215.496905 
L 737.899 198.692097 
L 752.677 234.17628 
L 767.455 196.510124 
L 782.233 217.546271 
L 797.011 228.05229 
L 811.789 241.584138 
L 826.567 204.201277 
L 841.345 209.517576 
" clip-path="url(#p3cd17e6c4b)" style="fill: none; stroke-dasharray: 7.4,3.2; stroke-dashoffset: 0; stroke: #d62728; stroke-width: 2"/>
   </g>
   <g id="line2d_29">
    <path d="M 102.445 262.28877 
L 117.223 53.7657 
L 132.001 44.543549 
L 146.779 43.338039 
L 161.557 40.957157 
L 176.335 38.998204 
L 191.113 36.978975 
L 205.891 35.954291 
L 220.669 34.929608 
L 235.447 34.417266 
L 250.225 33.452858 
L 265.003 32.699415 
L 279.781 32.126798 
L 294.559 31.644594 
L 309.337 31.313078 
L 324.115 30.830874 
L 338.893 30.288395 
L 353.671 29.95688 
L 368.449 29.595227 
L 383.227 29.113023 
L 398.005 28.781508 
L 412.783 28.449992 
L 427.561 28.148615 
L 442.339 28.028064 
L 457.117 27.636273 
L 471.895 27.395171 
L 486.673 27.304758 
L 501.451 27.455447 
L 516.229 27.395171 
L 531.007 27.756824 
L 545.785 27.425309 
L 560.563 27.395171 
L 575.341 27.515722 
L 590.119 27.304758 
L 604.897 27.365034 
L 619.675 27.666411 
L 634.453 27.304758 
L 649.231 27.244483 
L 664.009 27.575998 
L 678.787 27.244483 
L 693.565 27.093794 
L 708.343 27.515722 
L 723.121 27.184207 
L 737.899 27.093794 
L 752.677 27.485585 
L 767.455 27.003381 
L 782.233 26.943105 
L 797.011 27.214345 
L 811.789 26.973243 
L 826.567 26.852692 
L 841.345 27.154069 
" clip-path="url(#p3cd17e6c4b)" style="fill: none; stroke: #9467bd; stroke-width: 2; stroke-linecap: square"/>
   </g>
   <g id="line2d_30">
    <path d="M 102.445 262.324936 
L 117.223 55.573965 
L 132.001 46.725522 
L 146.779 46.400034 
L 161.557 46.978679 
L 176.335 46.864156 
L 191.113 50.944807 
L 205.891 54.808466 
L 220.669 59.081998 
L 235.447 66.200534 
L 250.225 68.617581 
L 265.003 76.224349 
L 279.781 62.32482 
L 294.559 76.188183 
L 309.337 81.697364 
L 324.115 101.238679 
L 338.893 101.931847 
L 353.671 93.336561 
L 368.449 112.865821 
L 383.227 108.17036 
L 398.005 149.362633 
L 412.783 119.345437 
L 427.561 114.378736 
L 442.339 131.496976 
L 457.117 132.587963 
L 471.895 154.540298 
L 486.673 125.113802 
L 501.451 154.576463 
L 516.229 123.154848 
L 531.007 115.023684 
L 545.785 162.508718 
L 560.563 177.336489 
L 575.341 131.90685 
L 590.119 167.433226 
L 604.897 155.022502 
L 619.675 141.761893 
L 634.453 133.787445 
L 649.231 136.638476 
L 664.009 146.608043 
L 678.787 111.250438 
L 693.565 149.525377 
L 708.343 132.798927 
L 723.121 147.964241 
L 737.899 134.63733 
L 752.677 157.463659 
L 767.455 106.663473 
L 782.233 148.856319 
L 797.011 130.080502 
L 811.789 155.703615 
L 826.567 138.048923 
L 841.345 145.071018 
" clip-path="url(#p3cd17e6c4b)" style="fill: none; stroke-dasharray: 7.4,3.2; stroke-dashoffset: 0; stroke: #9467bd; stroke-width: 2"/>
   </g>
   <g id="line2d_31">
    <path d="M 102.445 262.650423 
L 117.223 97.375019 
L 132.001 61.239861 
L 146.779 52.077986 
L 161.557 47.07512 
L 176.335 47.135395 
L 191.113 48.129941 
L 205.891 46.834018 
L 220.669 47.768288 
L 235.447 46.170988 
L 250.225 47.195671 
L 265.003 46.984707 
L 279.781 47.07512 
L 294.559 46.80388 
L 309.337 46.291539 
L 324.115 45.899748 
L 338.893 46.321676 
L 353.671 46.351814 
L 368.449 46.14085 
L 383.227 46.743605 
L 398.005 46.623054 
L 412.783 46.894294 
L 427.561 45.749059 
L 442.339 45.899748 
L 457.117 46.472365 
L 471.895 46.713467 
L 486.673 46.683329 
L 501.451 47.587462 
L 516.229 47.135395 
L 531.007 47.708013 
L 545.785 47.466911 
L 560.563 47.708013 
L 575.341 47.225809 
L 590.119 47.888839 
L 604.897 47.286084 
L 619.675 47.858701 
L 634.453 48.160079 
L 649.231 48.129941 
L 664.009 47.798426 
L 678.787 47.286084 
L 693.565 48.431319 
L 708.343 47.858701 
L 723.121 48.732696 
L 737.899 48.521732 
L 752.677 48.702558 
L 767.455 47.316222 
L 782.233 48.220354 
L 797.011 47.617599 
L 811.789 48.099803 
L 826.567 48.00939 
L 841.345 47.949115 
" clip-path="url(#p3cd17e6c4b)" style="fill: none; stroke: #1f77b4; stroke-width: 2; stroke-linecap: square"/>
   </g>
   <g id="line2d_32">
    <path d="M 102.445 264.000594 
L 117.223 100.49729 
L 132.001 64.428435 
L 146.779 55.622185 
L 161.557 50.016564 
L 176.335 49.365589 
L 191.113 49.51025 
L 205.891 48.111858 
L 220.669 49.154625 
L 235.447 48.853247 
L 250.225 48.449401 
L 265.003 48.419264 
L 279.781 49.046129 
L 294.559 48.407208 
L 309.337 47.364442 
L 324.115 47.207726 
L 338.893 47.792398 
L 353.671 47.020872 
L 368.449 47.225809 
L 383.227 47.786371 
L 398.005 48.117886 
L 412.783 47.117313 
L 427.561 46.641136 
L 442.339 47.201699 
L 457.117 48.099803 
L 471.895 48.431319 
L 486.673 47.882812 
L 501.451 48.642283 
L 516.229 48.334878 
L 531.007 47.352387 
L 545.785 48.877357 
L 560.563 48.750779 
L 575.341 48.60009 
L 590.119 49.377644 
L 604.897 48.208299 
L 619.675 49.136542 
L 634.453 48.563925 
L 649.231 49.009963 
L 664.009 48.84722 
L 678.787 48.30474 
L 693.565 49.871903 
L 708.343 49.184762 
L 723.121 49.094349 
L 737.899 48.533787 
L 752.677 50.143143 
L 767.455 49.287231 
L 782.233 50.673567 
L 797.011 48.853247 
L 811.789 48.91955 
L 826.567 48.672421 
L 841.345 49.245038 
" clip-path="url(#p3cd17e6c4b)" style="fill: none; stroke-dasharray: 7.4,3.2; stroke-dashoffset: 0; stroke: #1f77b4; stroke-width: 2"/>
   </g>
   <g id="patch_3">
    <path d="M 65.5 314.9095 
L 65.5 7.2 
" style="fill: none; stroke: #000000; stroke-width: 0.8; stroke-linejoin: miter; stroke-linecap: square"/>
   </g>
   <g id="patch_4">
    <path d="M 878.29 314.9095 
L 878.29 7.2 
" style="fill: none; stroke: #000000; stroke-width: 0.8; stroke-linejoin: miter; stroke-linecap: square"/>
   </g>
   <g id="patch_5">
    <path d="M 65.5 314.9095 
L 878.29 314.9095 
" style="fill: none; stroke: #000000; stroke-width: 0.8; stroke-linejoin: miter; stroke-linecap: square"/>
   </g>
   <g id="patch_6">
    <path d="M 65.5 7.2 
L 878.29 7.2 
" style="fill: none; stroke: #000000; stroke-width: 0.8; stroke-linejoin: miter; stroke-linecap: square"/>
   </g>
   <g id="legend_1">
    <g id="line2d_33">
     <path d="M 16 373.18045 
L 38 373.18045 
L 60 373.18045 
" style="fill: none; stroke: #ff7f0e; stroke-width: 2; stroke-linecap: square"/>
    </g>
    <g id="text_14">
     <!-- CoCo_Training -->
     <g transform="translate(77.6 380.88045)scale(0.22 -0.22)">
      <defs>
       <path id="TimesNewRomanPSMT-43" d="M 3853 4334 
L 3950 2894 
L 3853 2894 
Q 3659 3541 3300 3825 
Q 2941 4109 2438 4109 
Q 2016 4109 1675 3895 
Q 1334 3681 1139 3212 
Q 944 2744 944 2047 
Q 944 1472 1128 1050 
Q 1313 628 1683 403 
Q 2053 178 2528 178 
Q 2941 178 3256 354 
Q 3572 531 3950 1056 
L 4047 994 
Q 3728 428 3303 165 
Q 2878 -97 2294 -97 
Q 1241 -97 663 684 
Q 231 1266 231 2053 
Q 231 2688 515 3219 
Q 800 3750 1298 4042 
Q 1797 4334 2388 4334 
Q 2847 4334 3294 4109 
Q 3425 4041 3481 4041 
Q 3566 4041 3628 4100 
Q 3709 4184 3744 4334 
L 3853 4334 
z
" transform="scale(0.015625)"/>
       <path id="TimesNewRomanPSMT-5f" d="M 3256 -1381 
L -53 -1381 
L -53 -1119 
L 3256 -1119 
L 3256 -1381 
z
" transform="scale(0.015625)"/>
       <path id="TimesNewRomanPSMT-54" d="M 3703 4238 
L 3750 3244 
L 3631 3244 
Q 3597 3506 3538 3619 
Q 3441 3800 3280 3886 
Q 3119 3972 2856 3972 
L 2259 3972 
L 2259 734 
Q 2259 344 2344 247 
Q 2463 116 2709 116 
L 2856 116 
L 2856 0 
L 1059 0 
L 1059 116 
L 1209 116 
Q 1478 116 1591 278 
Q 1659 378 1659 734 
L 1659 3972 
L 1150 3972 
Q 853 3972 728 3928 
Q 566 3869 450 3700 
Q 334 3531 313 3244 
L 194 3244 
L 244 4238 
L 3703 4238 
z
" transform="scale(0.015625)"/>
       <path id="TimesNewRomanPSMT-69" d="M 928 4444 
Q 1059 4444 1151 4351 
Q 1244 4259 1244 4128 
Q 1244 3997 1151 3903 
Q 1059 3809 928 3809 
Q 797 3809 703 3903 
Q 609 3997 609 4128 
Q 609 4259 701 4351 
Q 794 4444 928 4444 
z
M 1188 2947 
L 1188 647 
Q 1188 378 1227 289 
Q 1266 200 1342 156 
Q 1419 113 1622 113 
L 1622 0 
L 231 0 
L 231 113 
Q 441 113 512 153 
Q 584 194 626 287 
Q 669 381 669 647 
L 669 1750 
Q 669 2216 641 2353 
Q 619 2453 572 2492 
Q 525 2531 444 2531 
Q 356 2531 231 2484 
L 188 2597 
L 1050 2947 
L 1188 2947 
z
" transform="scale(0.015625)"/>
       <path id="TimesNewRomanPSMT-6e" d="M 1034 2341 
Q 1538 2947 1994 2947 
Q 2228 2947 2397 2830 
Q 2566 2713 2666 2444 
Q 2734 2256 2734 1869 
L 2734 647 
Q 2734 375 2778 278 
Q 2813 200 2889 156 
Q 2966 113 3172 113 
L 3172 0 
L 1756 0 
L 1756 113 
L 1816 113 
Q 2016 113 2095 173 
Q 2175 234 2206 353 
Q 2219 400 2219 647 
L 2219 1819 
Q 2219 2209 2117 2386 
Q 2016 2563 1775 2563 
Q 1403 2563 1034 2156 
L 1034 647 
Q 1034 356 1069 288 
Q 1113 197 1189 155 
Q 1266 113 1500 113 
L 1500 0 
L 84 0 
L 84 113 
L 147 113 
Q 366 113 442 223 
Q 519 334 519 647 
L 519 1709 
Q 519 2225 495 2337 
Q 472 2450 423 2490 
Q 375 2531 294 2531 
Q 206 2531 84 2484 
L 38 2597 
L 900 2947 
L 1034 2947 
L 1034 2341 
z
" transform="scale(0.015625)"/>
       <path id="TimesNewRomanPSMT-67" d="M 966 1044 
Q 703 1172 562 1401 
Q 422 1631 422 1909 
Q 422 2334 742 2640 
Q 1063 2947 1563 2947 
Q 1972 2947 2272 2747 
L 2878 2747 
Q 3013 2747 3034 2739 
Q 3056 2731 3066 2713 
Q 3084 2684 3084 2613 
Q 3084 2531 3069 2500 
Q 3059 2484 3036 2475 
Q 3013 2466 2878 2466 
L 2506 2466 
Q 2681 2241 2681 1891 
Q 2681 1491 2375 1206 
Q 2069 922 1553 922 
Q 1341 922 1119 984 
Q 981 866 932 777 
Q 884 688 884 625 
Q 884 572 936 522 
Q 988 472 1138 450 
Q 1225 438 1575 428 
Q 2219 413 2409 384 
Q 2700 344 2873 169 
Q 3047 -6 3047 -263 
Q 3047 -616 2716 -925 
Q 2228 -1381 1444 -1381 
Q 841 -1381 425 -1109 
Q 191 -953 191 -784 
Q 191 -709 225 -634 
Q 278 -519 444 -313 
Q 466 -284 763 25 
Q 600 122 533 198 
Q 466 275 466 372 
Q 466 481 555 628 
Q 644 775 966 1044 
z
M 1509 2797 
Q 1278 2797 1122 2612 
Q 966 2428 966 2047 
Q 966 1553 1178 1281 
Q 1341 1075 1591 1075 
Q 1828 1075 1981 1253 
Q 2134 1431 2134 1813 
Q 2134 2309 1919 2591 
Q 1759 2797 1509 2797 
z
M 934 0 
Q 788 -159 713 -296 
Q 638 -434 638 -550 
Q 638 -700 819 -813 
Q 1131 -1006 1722 -1006 
Q 2284 -1006 2551 -807 
Q 2819 -609 2819 -384 
Q 2819 -222 2659 -153 
Q 2497 -84 2016 -72 
Q 1313 -53 934 0 
z
" transform="scale(0.015625)"/>
      </defs>
      <use xlink:href="#TimesNewRomanPSMT-43"/>
      <use xlink:href="#TimesNewRomanPSMT-6f" x="66.699219"/>
      <use xlink:href="#TimesNewRomanPSMT-43" x="116.699219"/>
      <use xlink:href="#TimesNewRomanPSMT-6f" x="183.398438"/>
      <use xlink:href="#TimesNewRomanPSMT-5f" x="233.398438"/>
      <use xlink:href="#TimesNewRomanPSMT-54" x="283.398438"/>
      <use xlink:href="#TimesNewRomanPSMT-72" x="340.982422"/>
      <use xlink:href="#TimesNewRomanPSMT-61" x="374.283203"/>
      <use xlink:href="#TimesNewRomanPSMT-69" x="418.667969"/>
      <use xlink:href="#TimesNewRomanPSMT-6e" x="446.451172"/>
      <use xlink:href="#TimesNewRomanPSMT-69" x="496.451172"/>
      <use xlink:href="#TimesNewRomanPSMT-6e" x="524.234375"/>
      <use xlink:href="#TimesNewRomanPSMT-67" x="574.234375"/>
     </g>
    </g>
    <g id="line2d_34">
     <path d="M 16 404.327637 
L 38 404.327637 
L 60 404.327637 
" style="fill: none; stroke-dasharray: 7.4,3.2; stroke-dashoffset: 0; stroke: #ff7f0e; stroke-width: 2"/>
    </g>
    <g id="text_15">
     <!-- CoCo_Testing -->
     <g transform="translate(77.6 412.027637)scale(0.22 -0.22)">
      <defs>
       <path id="TimesNewRomanPSMT-65" d="M 681 1784 
Q 678 1147 991 784 
Q 1303 422 1725 422 
Q 2006 422 2214 576 
Q 2422 731 2563 1106 
L 2659 1044 
Q 2594 616 2278 264 
Q 1963 -88 1488 -88 
Q 972 -88 605 314 
Q 238 716 238 1394 
Q 238 2128 614 2539 
Q 991 2950 1559 2950 
Q 2041 2950 2350 2633 
Q 2659 2316 2659 1784 
L 681 1784 
z
M 681 1966 
L 2006 1966 
Q 1991 2241 1941 2353 
Q 1863 2528 1708 2628 
Q 1553 2728 1384 2728 
Q 1125 2728 920 2526 
Q 716 2325 681 1966 
z
" transform="scale(0.015625)"/>
       <path id="TimesNewRomanPSMT-73" d="M 2050 2947 
L 2050 1972 
L 1947 1972 
Q 1828 2431 1642 2597 
Q 1456 2763 1169 2763 
Q 950 2763 815 2647 
Q 681 2531 681 2391 
Q 681 2216 781 2091 
Q 878 1963 1175 1819 
L 1631 1597 
Q 2266 1288 2266 781 
Q 2266 391 1970 151 
Q 1675 -88 1309 -88 
Q 1047 -88 709 6 
Q 606 38 541 38 
Q 469 38 428 -44 
L 325 -44 
L 325 978 
L 428 978 
Q 516 541 762 319 
Q 1009 97 1316 97 
Q 1531 97 1667 223 
Q 1803 350 1803 528 
Q 1803 744 1651 891 
Q 1500 1038 1047 1263 
Q 594 1488 453 1669 
Q 313 1847 313 2119 
Q 313 2472 555 2709 
Q 797 2947 1181 2947 
Q 1350 2947 1591 2875 
Q 1750 2828 1803 2828 
Q 1853 2828 1881 2850 
Q 1909 2872 1947 2947 
L 2050 2947 
z
" transform="scale(0.015625)"/>
       <path id="TimesNewRomanPSMT-74" d="M 1031 3803 
L 1031 2863 
L 1700 2863 
L 1700 2644 
L 1031 2644 
L 1031 788 
Q 1031 509 1111 412 
Q 1191 316 1316 316 
Q 1419 316 1516 380 
Q 1613 444 1666 569 
L 1788 569 
Q 1678 263 1478 108 
Q 1278 -47 1066 -47 
Q 922 -47 784 33 
Q 647 113 581 261 
Q 516 409 516 719 
L 516 2644 
L 63 2644 
L 63 2747 
Q 234 2816 414 2980 
Q 594 3144 734 3369 
Q 806 3488 934 3803 
L 1031 3803 
z
" transform="scale(0.015625)"/>
      </defs>
      <use xlink:href="#TimesNewRomanPSMT-43"/>
      <use xlink:href="#TimesNewRomanPSMT-6f" x="66.699219"/>
      <use xlink:href="#TimesNewRomanPSMT-43" x="116.699219"/>
      <use xlink:href="#TimesNewRomanPSMT-6f" x="183.398438"/>
      <use xlink:href="#TimesNewRomanPSMT-5f" x="233.398438"/>
      <use xlink:href="#TimesNewRomanPSMT-54" x="283.398438"/>
      <use xlink:href="#TimesNewRomanPSMT-65" x="337.482422"/>
      <use xlink:href="#TimesNewRomanPSMT-73" x="381.867188"/>
      <use xlink:href="#TimesNewRomanPSMT-74" x="420.783203"/>
      <use xlink:href="#TimesNewRomanPSMT-69" x="448.566406"/>
      <use xlink:href="#TimesNewRomanPSMT-6e" x="476.349609"/>
      <use xlink:href="#TimesNewRomanPSMT-67" x="526.349609"/>
     </g>
    </g>
    <g id="line2d_35">
     <path d="M 16 435.474825 
L 38 435.474825 
L 60 435.474825 
" style="fill: none; stroke: #2ca02c; stroke-width: 2; stroke-linecap: square"/>
    </g>
    <g id="text_16">
     <!-- IRM_Training -->
     <g transform="translate(77.6 443.174825)scale(0.22 -0.22)">
      <defs>
       <path id="TimesNewRomanPSMT-49" d="M 1975 116 
L 1975 0 
L 159 0 
L 159 116 
L 309 116 
Q 572 116 691 269 
Q 766 369 766 750 
L 766 3488 
Q 766 3809 725 3913 
Q 694 3991 597 4047 
Q 459 4122 309 4122 
L 159 4122 
L 159 4238 
L 1975 4238 
L 1975 4122 
L 1822 4122 
Q 1563 4122 1444 3969 
Q 1366 3869 1366 3488 
L 1366 750 
Q 1366 428 1406 325 
Q 1438 247 1538 191 
Q 1672 116 1822 116 
L 1975 116 
z
" transform="scale(0.015625)"/>
       <path id="TimesNewRomanPSMT-52" d="M 4325 0 
L 3194 0 
L 1759 1981 
Q 1600 1975 1500 1975 
Q 1459 1975 1412 1976 
Q 1366 1978 1316 1981 
L 1316 750 
Q 1316 350 1403 253 
Q 1522 116 1759 116 
L 1925 116 
L 1925 0 
L 109 0 
L 109 116 
L 269 116 
Q 538 116 653 291 
Q 719 388 719 750 
L 719 3488 
Q 719 3888 631 3984 
Q 509 4122 269 4122 
L 109 4122 
L 109 4238 
L 1653 4238 
Q 2328 4238 2648 4139 
Q 2969 4041 3192 3777 
Q 3416 3513 3416 3147 
Q 3416 2756 3161 2468 
Q 2906 2181 2372 2063 
L 3247 847 
Q 3547 428 3762 290 
Q 3978 153 4325 116 
L 4325 0 
z
M 1316 2178 
Q 1375 2178 1419 2176 
Q 1463 2175 1491 2175 
Q 2097 2175 2405 2437 
Q 2713 2700 2713 3106 
Q 2713 3503 2464 3751 
Q 2216 4000 1806 4000 
Q 1625 4000 1316 3941 
L 1316 2178 
z
" transform="scale(0.015625)"/>
       <path id="TimesNewRomanPSMT-4d" d="M 2619 0 
L 981 3566 
L 981 734 
Q 981 344 1066 247 
Q 1181 116 1431 116 
L 1581 116 
L 1581 0 
L 106 0 
L 106 116 
L 256 116 
Q 525 116 638 278 
Q 706 378 706 734 
L 706 3503 
Q 706 3784 644 3909 
Q 600 4000 483 4061 
Q 366 4122 106 4122 
L 106 4238 
L 1306 4238 
L 2844 922 
L 4356 4238 
L 5556 4238 
L 5556 4122 
L 5409 4122 
Q 5138 4122 5025 3959 
Q 4956 3859 4956 3503 
L 4956 734 
Q 4956 344 5044 247 
Q 5159 116 5409 116 
L 5556 116 
L 5556 0 
L 3756 0 
L 3756 116 
L 3906 116 
Q 4178 116 4288 278 
Q 4356 378 4356 734 
L 4356 3566 
L 2722 0 
L 2619 0 
z
" transform="scale(0.015625)"/>
      </defs>
      <use xlink:href="#TimesNewRomanPSMT-49"/>
      <use xlink:href="#TimesNewRomanPSMT-52" x="33.300781"/>
      <use xlink:href="#TimesNewRomanPSMT-4d" x="100"/>
      <use xlink:href="#TimesNewRomanPSMT-5f" x="188.916016"/>
      <use xlink:href="#TimesNewRomanPSMT-54" x="238.916016"/>
      <use xlink:href="#TimesNewRomanPSMT-72" x="296.5"/>
      <use xlink:href="#TimesNewRomanPSMT-61" x="329.800781"/>
      <use xlink:href="#TimesNewRomanPSMT-69" x="374.185547"/>
      <use xlink:href="#TimesNewRomanPSMT-6e" x="401.96875"/>
      <use xlink:href="#TimesNewRomanPSMT-69" x="451.96875"/>
      <use xlink:href="#TimesNewRomanPSMT-6e" x="479.751953"/>
      <use xlink:href="#TimesNewRomanPSMT-67" x="529.751953"/>
     </g>
    </g>
    <g id="line2d_36">
     <path d="M 258.931562 373.18045 
L 280.931562 373.18045 
L 302.931562 373.18045 
" style="fill: none; stroke-dasharray: 7.4,3.2; stroke-dashoffset: 0; stroke: #2ca02c; stroke-width: 2"/>
    </g>
    <g id="text_17">
     <!-- IRM_Testing -->
     <g transform="translate(320.531563 380.88045)scale(0.22 -0.22)">
      <use xlink:href="#TimesNewRomanPSMT-49"/>
      <use xlink:href="#TimesNewRomanPSMT-52" x="33.300781"/>
      <use xlink:href="#TimesNewRomanPSMT-4d" x="100"/>
      <use xlink:href="#TimesNewRomanPSMT-5f" x="188.916016"/>
      <use xlink:href="#TimesNewRomanPSMT-54" x="238.916016"/>
      <use xlink:href="#TimesNewRomanPSMT-65" x="293"/>
      <use xlink:href="#TimesNewRomanPSMT-73" x="337.384766"/>
      <use xlink:href="#TimesNewRomanPSMT-74" x="376.300781"/>
      <use xlink:href="#TimesNewRomanPSMT-69" x="404.083984"/>
      <use xlink:href="#TimesNewRomanPSMT-6e" x="431.867188"/>
      <use xlink:href="#TimesNewRomanPSMT-67" x="481.867188"/>
     </g>
    </g>
    <g id="line2d_37">
     <path d="M 258.931562 404.327637 
L 280.931562 404.327637 
L 302.931562 404.327637 
" style="fill: none; stroke: #d62728; stroke-width: 2; stroke-linecap: square"/>
    </g>
    <g id="text_18">
     <!-- ERM_Training -->
     <g transform="translate(320.531563 412.027637)scale(0.22 -0.22)">
      <use xlink:href="#TimesNewRomanPSMT-45"/>
      <use xlink:href="#TimesNewRomanPSMT-52" x="61.083984"/>
      <use xlink:href="#TimesNewRomanPSMT-4d" x="127.783203"/>
      <use xlink:href="#TimesNewRomanPSMT-5f" x="216.699219"/>
      <use xlink:href="#TimesNewRomanPSMT-54" x="266.699219"/>
      <use xlink:href="#TimesNewRomanPSMT-72" x="324.283203"/>
      <use xlink:href="#TimesNewRomanPSMT-61" x="357.583984"/>
      <use xlink:href="#TimesNewRomanPSMT-69" x="401.96875"/>
      <use xlink:href="#TimesNewRomanPSMT-6e" x="429.751953"/>
      <use xlink:href="#TimesNewRomanPSMT-69" x="479.751953"/>
      <use xlink:href="#TimesNewRomanPSMT-6e" x="507.535156"/>
      <use xlink:href="#TimesNewRomanPSMT-67" x="557.535156"/>
     </g>
    </g>
    <g id="line2d_38">
     <path d="M 258.931562 435.474825 
L 280.931562 435.474825 
L 302.931562 435.474825 
" style="fill: none; stroke-dasharray: 7.4,3.2; stroke-dashoffset: 0; stroke: #d62728; stroke-width: 2"/>
    </g>
    <g id="text_19">
     <!-- ERM_Testing -->
     <g transform="translate(320.531563 443.174825)scale(0.22 -0.22)">
      <use xlink:href="#TimesNewRomanPSMT-45"/>
      <use xlink:href="#TimesNewRomanPSMT-52" x="61.083984"/>
      <use xlink:href="#TimesNewRomanPSMT-4d" x="127.783203"/>
      <use xlink:href="#TimesNewRomanPSMT-5f" x="216.699219"/>
      <use xlink:href="#TimesNewRomanPSMT-54" x="266.699219"/>
      <use xlink:href="#TimesNewRomanPSMT-65" x="320.783203"/>
      <use xlink:href="#TimesNewRomanPSMT-73" x="365.167969"/>
      <use xlink:href="#TimesNewRomanPSMT-74" x="404.083984"/>
      <use xlink:href="#TimesNewRomanPSMT-69" x="431.867188"/>
      <use xlink:href="#TimesNewRomanPSMT-6e" x="459.650391"/>
      <use xlink:href="#TimesNewRomanPSMT-67" x="509.650391"/>
     </g>
    </g>
    <g id="line2d_39">
     <path d="M 498.188437 373.18045 
L 520.188437 373.18045 
L 542.188437 373.18045 
" style="fill: none; stroke: #9467bd; stroke-width: 2; stroke-linecap: square"/>
    </g>
    <g id="text_20">
     <!-- REx_Training -->
     <g transform="translate(559.788437 380.88045)scale(0.22 -0.22)">
      <defs>
       <path id="TimesNewRomanPSMT-78" d="M 84 2863 
L 1431 2863 
L 1431 2747 
Q 1303 2747 1251 2703 
Q 1200 2659 1200 2588 
Q 1200 2513 1309 2356 
Q 1344 2306 1413 2200 
L 1616 1875 
L 1850 2200 
Q 2075 2509 2075 2591 
Q 2075 2656 2022 2701 
Q 1969 2747 1850 2747 
L 1850 2863 
L 2819 2863 
L 2819 2747 
Q 2666 2738 2553 2663 
Q 2400 2556 2134 2200 
L 1744 1678 
L 2456 653 
Q 2719 275 2831 198 
Q 2944 122 3122 113 
L 3122 0 
L 1772 0 
L 1772 113 
Q 1913 113 1991 175 
Q 2050 219 2050 291 
Q 2050 363 1850 653 
L 1431 1266 
L 972 653 
Q 759 369 759 316 
Q 759 241 829 180 
Q 900 119 1041 113 
L 1041 0 
L 106 0 
L 106 113 
Q 219 128 303 191 
Q 422 281 703 653 
L 1303 1450 
L 759 2238 
Q 528 2575 401 2661 
Q 275 2747 84 2747 
L 84 2863 
z
" transform="scale(0.015625)"/>
      </defs>
      <use xlink:href="#TimesNewRomanPSMT-52"/>
      <use xlink:href="#TimesNewRomanPSMT-45" x="66.699219"/>
      <use xlink:href="#TimesNewRomanPSMT-78" x="127.783203"/>
      <use xlink:href="#TimesNewRomanPSMT-5f" x="177.783203"/>
      <use xlink:href="#TimesNewRomanPSMT-54" x="227.783203"/>
      <use xlink:href="#TimesNewRomanPSMT-72" x="285.367188"/>
      <use xlink:href="#TimesNewRomanPSMT-61" x="318.667969"/>
      <use xlink:href="#TimesNewRomanPSMT-69" x="363.052734"/>
      <use xlink:href="#TimesNewRomanPSMT-6e" x="390.835938"/>
      <use xlink:href="#TimesNewRomanPSMT-69" x="440.835938"/>
      <use xlink:href="#TimesNewRomanPSMT-6e" x="468.619141"/>
      <use xlink:href="#TimesNewRomanPSMT-67" x="518.619141"/>
     </g>
    </g>
    <g id="line2d_40">
     <path d="M 498.188437 404.327637 
L 520.188437 404.327637 
L 542.188437 404.327637 
" style="fill: none; stroke-dasharray: 7.4,3.2; stroke-dashoffset: 0; stroke: #9467bd; stroke-width: 2"/>
    </g>
    <g id="text_21">
     <!-- REx_Testing -->
     <g transform="translate(559.788437 412.027637)scale(0.22 -0.22)">
      <use xlink:href="#TimesNewRomanPSMT-52"/>
      <use xlink:href="#TimesNewRomanPSMT-45" x="66.699219"/>
      <use xlink:href="#TimesNewRomanPSMT-78" x="127.783203"/>
      <use xlink:href="#TimesNewRomanPSMT-5f" x="177.783203"/>
      <use xlink:href="#TimesNewRomanPSMT-54" x="227.783203"/>
      <use xlink:href="#TimesNewRomanPSMT-65" x="281.867188"/>
      <use xlink:href="#TimesNewRomanPSMT-73" x="326.251953"/>
      <use xlink:href="#TimesNewRomanPSMT-74" x="365.167969"/>
      <use xlink:href="#TimesNewRomanPSMT-69" x="392.951172"/>
      <use xlink:href="#TimesNewRomanPSMT-6e" x="420.734375"/>
      <use xlink:href="#TimesNewRomanPSMT-67" x="470.734375"/>
     </g>
    </g>
    <g id="line2d_41">
     <path d="M 728.8825 373.18045 
L 750.8825 373.18045 
L 772.8825 373.18045 
" style="fill: none; stroke: #1f77b4; stroke-width: 2; stroke-linecap: square"/>
    </g>
    <g id="text_22">
     <!-- DCIL_Training -->
     <g transform="translate(790.4825 380.88045)scale(0.22 -0.22)">
      <defs>
       <path id="TimesNewRomanPSMT-44" d="M 109 0 
L 109 116 
L 269 116 
Q 538 116 650 288 
Q 719 391 719 750 
L 719 3488 
Q 719 3884 631 3984 
Q 509 4122 269 4122 
L 109 4122 
L 109 4238 
L 1834 4238 
Q 2784 4238 3279 4022 
Q 3775 3806 4076 3303 
Q 4378 2800 4378 2141 
Q 4378 1256 3841 663 
Q 3238 0 2003 0 
L 109 0 
z
M 1319 306 
Q 1716 219 1984 219 
Q 2709 219 3187 728 
Q 3666 1238 3666 2109 
Q 3666 2988 3187 3494 
Q 2709 4000 1959 4000 
Q 1678 4000 1319 3909 
L 1319 306 
z
" transform="scale(0.015625)"/>
       <path id="TimesNewRomanPSMT-4c" d="M 3669 1172 
L 3772 1150 
L 3409 0 
L 128 0 
L 128 116 
L 288 116 
Q 556 116 672 291 
Q 738 391 738 753 
L 738 3488 
Q 738 3884 650 3984 
Q 528 4122 288 4122 
L 128 4122 
L 128 4238 
L 2047 4238 
L 2047 4122 
Q 1709 4125 1573 4059 
Q 1438 3994 1388 3894 
Q 1338 3794 1338 3416 
L 1338 753 
Q 1338 494 1388 397 
Q 1425 331 1503 300 
Q 1581 269 1991 269 
L 2300 269 
Q 2788 269 2984 341 
Q 3181 413 3343 595 
Q 3506 778 3669 1172 
z
" transform="scale(0.015625)"/>
      </defs>
      <use xlink:href="#TimesNewRomanPSMT-44"/>
      <use xlink:href="#TimesNewRomanPSMT-43" x="72.216797"/>
      <use xlink:href="#TimesNewRomanPSMT-49" x="138.916016"/>
      <use xlink:href="#TimesNewRomanPSMT-4c" x="172.216797"/>
      <use xlink:href="#TimesNewRomanPSMT-5f" x="233.300781"/>
      <use xlink:href="#TimesNewRomanPSMT-54" x="283.300781"/>
      <use xlink:href="#TimesNewRomanPSMT-72" x="340.884766"/>
      <use xlink:href="#TimesNewRomanPSMT-61" x="374.185547"/>
      <use xlink:href="#TimesNewRomanPSMT-69" x="418.570312"/>
      <use xlink:href="#TimesNewRomanPSMT-6e" x="446.353516"/>
      <use xlink:href="#TimesNewRomanPSMT-69" x="496.353516"/>
      <use xlink:href="#TimesNewRomanPSMT-6e" x="524.136719"/>
      <use xlink:href="#TimesNewRomanPSMT-67" x="574.136719"/>
     </g>
    </g>
    <g id="line2d_42">
     <path d="M 728.8825 404.327637 
L 750.8825 404.327637 
L 772.8825 404.327637 
" style="fill: none; stroke-dasharray: 7.4,3.2; stroke-dashoffset: 0; stroke: #1f77b4; stroke-width: 2"/>
    </g>
    <g id="text_23">
     <!-- DCIL_Testing -->
     <g transform="translate(790.4825 412.027637)scale(0.22 -0.22)">
      <use xlink:href="#TimesNewRomanPSMT-44"/>
      <use xlink:href="#TimesNewRomanPSMT-43" x="72.216797"/>
      <use xlink:href="#TimesNewRomanPSMT-49" x="138.916016"/>
      <use xlink:href="#TimesNewRomanPSMT-4c" x="172.216797"/>
      <use xlink:href="#TimesNewRomanPSMT-5f" x="233.300781"/>
      <use xlink:href="#TimesNewRomanPSMT-54" x="283.300781"/>
      <use xlink:href="#TimesNewRomanPSMT-65" x="337.384766"/>
      <use xlink:href="#TimesNewRomanPSMT-73" x="381.769531"/>
      <use xlink:href="#TimesNewRomanPSMT-74" x="420.685547"/>
      <use xlink:href="#TimesNewRomanPSMT-69" x="448.46875"/>
      <use xlink:href="#TimesNewRomanPSMT-6e" x="476.251953"/>
      <use xlink:href="#TimesNewRomanPSMT-67" x="526.251953"/>
     </g>
    </g>
   </g>
  </g>
 </g>
 <defs>
  <clipPath id="p3cd17e6c4b">
   <rect x="65.5" y="7.2" width="812.79" height="307.7095"/>
  </clipPath>
 </defs>
</svg>
